G04 #@! TF.GenerationSoftware,KiCad,Pcbnew,5.1.7-a382d34a8~88~ubuntu16.04.1*
G04 #@! TF.CreationDate,2021-03-11T21:24:15+01:00*
G04 #@! TF.ProjectId,3u-100-eurocard-eurorack-protoboard,33752d31-3030-42d6-9575-726f63617264,rev?*
G04 #@! TF.SameCoordinates,Original*
G04 #@! TF.FileFunction,Legend,Bot*
G04 #@! TF.FilePolarity,Positive*
%FSLAX46Y46*%
G04 Gerber Fmt 4.6, Leading zero omitted, Abs format (unit mm)*
G04 Created by KiCad (PCBNEW 5.1.7-a382d34a8~88~ubuntu16.04.1) date 2021-03-11 21:24:15*
%MOMM*%
%LPD*%
G01*
G04 APERTURE LIST*
%ADD10C,0.125000*%
%ADD11C,0.100000*%
%ADD12C,2.000000*%
G04 APERTURE END LIST*
D10*
X98728321Y-82872500D02*
X98787845Y-82842738D01*
X98877130Y-82842738D01*
X98966416Y-82872500D01*
X99025940Y-82932023D01*
X99055702Y-82991547D01*
X99085464Y-83110595D01*
X99085464Y-83199880D01*
X99055702Y-83318928D01*
X99025940Y-83378452D01*
X98966416Y-83437976D01*
X98877130Y-83467738D01*
X98817607Y-83467738D01*
X98728321Y-83437976D01*
X98698559Y-83408214D01*
X98698559Y-83199880D01*
X98817607Y-83199880D01*
X98430702Y-83467738D02*
X98430702Y-82842738D01*
X98073559Y-83467738D01*
X98073559Y-82842738D01*
X97775940Y-83467738D02*
X97775940Y-82842738D01*
X97627130Y-82842738D01*
X97537845Y-82872500D01*
X97478321Y-82932023D01*
X97448559Y-82991547D01*
X97418797Y-83110595D01*
X97418797Y-83199880D01*
X97448559Y-83318928D01*
X97478321Y-83378452D01*
X97537845Y-83437976D01*
X97627130Y-83467738D01*
X97775940Y-83467738D01*
X98728321Y-80332500D02*
X98787845Y-80302738D01*
X98877130Y-80302738D01*
X98966416Y-80332500D01*
X99025940Y-80392023D01*
X99055702Y-80451547D01*
X99085464Y-80570595D01*
X99085464Y-80659880D01*
X99055702Y-80778928D01*
X99025940Y-80838452D01*
X98966416Y-80897976D01*
X98877130Y-80927738D01*
X98817607Y-80927738D01*
X98728321Y-80897976D01*
X98698559Y-80868214D01*
X98698559Y-80659880D01*
X98817607Y-80659880D01*
X98430702Y-80927738D02*
X98430702Y-80302738D01*
X98073559Y-80927738D01*
X98073559Y-80302738D01*
X97775940Y-80927738D02*
X97775940Y-80302738D01*
X97627130Y-80302738D01*
X97537845Y-80332500D01*
X97478321Y-80392023D01*
X97448559Y-80451547D01*
X97418797Y-80570595D01*
X97418797Y-80659880D01*
X97448559Y-80778928D01*
X97478321Y-80838452D01*
X97537845Y-80897976D01*
X97627130Y-80927738D01*
X97775940Y-80927738D01*
X97954511Y-73248214D02*
X97984273Y-73277976D01*
X98073559Y-73307738D01*
X98133083Y-73307738D01*
X98222369Y-73277976D01*
X98281892Y-73218452D01*
X98311654Y-73158928D01*
X98341416Y-73039880D01*
X98341416Y-72950595D01*
X98311654Y-72831547D01*
X98281892Y-72772023D01*
X98222369Y-72712500D01*
X98133083Y-72682738D01*
X98073559Y-72682738D01*
X97984273Y-72712500D01*
X97954511Y-72742261D01*
X97775940Y-72682738D02*
X97567607Y-73307738D01*
X97359273Y-72682738D01*
X98728321Y-85412500D02*
X98787845Y-85382738D01*
X98877130Y-85382738D01*
X98966416Y-85412500D01*
X99025940Y-85472023D01*
X99055702Y-85531547D01*
X99085464Y-85650595D01*
X99085464Y-85739880D01*
X99055702Y-85858928D01*
X99025940Y-85918452D01*
X98966416Y-85977976D01*
X98877130Y-86007738D01*
X98817607Y-86007738D01*
X98728321Y-85977976D01*
X98698559Y-85948214D01*
X98698559Y-85739880D01*
X98817607Y-85739880D01*
X98430702Y-86007738D02*
X98430702Y-85382738D01*
X98073559Y-86007738D01*
X98073559Y-85382738D01*
X97775940Y-86007738D02*
X97775940Y-85382738D01*
X97627130Y-85382738D01*
X97537845Y-85412500D01*
X97478321Y-85472023D01*
X97448559Y-85531547D01*
X97418797Y-85650595D01*
X97418797Y-85739880D01*
X97448559Y-85858928D01*
X97478321Y-85918452D01*
X97537845Y-85977976D01*
X97627130Y-86007738D01*
X97775940Y-86007738D01*
X99025940Y-70172500D02*
X99085464Y-70142738D01*
X99174750Y-70142738D01*
X99264035Y-70172500D01*
X99323559Y-70232023D01*
X99353321Y-70291547D01*
X99383083Y-70410595D01*
X99383083Y-70499880D01*
X99353321Y-70618928D01*
X99323559Y-70678452D01*
X99264035Y-70737976D01*
X99174750Y-70767738D01*
X99115226Y-70767738D01*
X99025940Y-70737976D01*
X98996178Y-70708214D01*
X98996178Y-70499880D01*
X99115226Y-70499880D01*
X98758083Y-70589166D02*
X98460464Y-70589166D01*
X98817607Y-70767738D02*
X98609273Y-70142738D01*
X98400940Y-70767738D01*
X98281892Y-70142738D02*
X97924750Y-70142738D01*
X98103321Y-70767738D02*
X98103321Y-70142738D01*
X97716416Y-70440357D02*
X97508083Y-70440357D01*
X97418797Y-70767738D02*
X97716416Y-70767738D01*
X97716416Y-70142738D01*
X97418797Y-70142738D01*
X99650940Y-78149642D02*
X99174750Y-78149642D01*
X99412845Y-78387738D02*
X99412845Y-77911547D01*
X98549750Y-78387738D02*
X98906892Y-78387738D01*
X98728321Y-78387738D02*
X98728321Y-77762738D01*
X98787845Y-77852023D01*
X98847369Y-77911547D01*
X98906892Y-77941309D01*
X98311654Y-77822261D02*
X98281892Y-77792500D01*
X98222369Y-77762738D01*
X98073559Y-77762738D01*
X98014035Y-77792500D01*
X97984273Y-77822261D01*
X97954511Y-77881785D01*
X97954511Y-77941309D01*
X97984273Y-78030595D01*
X98341416Y-78387738D01*
X97954511Y-78387738D01*
X97775940Y-77762738D02*
X97567607Y-78387738D01*
X97359273Y-77762738D01*
X99650940Y-88309642D02*
X99174750Y-88309642D01*
X98549750Y-88547738D02*
X98906892Y-88547738D01*
X98728321Y-88547738D02*
X98728321Y-87922738D01*
X98787845Y-88012023D01*
X98847369Y-88071547D01*
X98906892Y-88101309D01*
X98311654Y-87982261D02*
X98281892Y-87952500D01*
X98222369Y-87922738D01*
X98073559Y-87922738D01*
X98014035Y-87952500D01*
X97984273Y-87982261D01*
X97954511Y-88041785D01*
X97954511Y-88101309D01*
X97984273Y-88190595D01*
X98341416Y-88547738D01*
X97954511Y-88547738D01*
X97775940Y-87922738D02*
X97567607Y-88547738D01*
X97359273Y-87922738D01*
X99055702Y-75609642D02*
X98579511Y-75609642D01*
X98817607Y-75847738D02*
X98817607Y-75371547D01*
X97984273Y-75222738D02*
X98281892Y-75222738D01*
X98311654Y-75520357D01*
X98281892Y-75490595D01*
X98222369Y-75460833D01*
X98073559Y-75460833D01*
X98014035Y-75490595D01*
X97984273Y-75520357D01*
X97954511Y-75579880D01*
X97954511Y-75728690D01*
X97984273Y-75788214D01*
X98014035Y-75817976D01*
X98073559Y-75847738D01*
X98222369Y-75847738D01*
X98281892Y-75817976D01*
X98311654Y-75788214D01*
X97775940Y-75222738D02*
X97567607Y-75847738D01*
X97359273Y-75222738D01*
D11*
G36*
X100965000Y-91440000D02*
G01*
X90805000Y-91440000D01*
X90805000Y-90170000D01*
X100965000Y-90170000D01*
X100965000Y-91440000D01*
G37*
X100965000Y-91440000D02*
X90805000Y-91440000D01*
X90805000Y-90170000D01*
X100965000Y-90170000D01*
X100965000Y-91440000D01*
D10*
X38862000Y-51308000D02*
X39116000Y-51054000D01*
X38862000Y-49022000D02*
X39116000Y-49276000D01*
X41148000Y-49022000D02*
X40894000Y-49276000D01*
X41148000Y-51308000D02*
X40894000Y-51054000D01*
D12*
X73025000Y-88265000D02*
X73025000Y-12065000D01*
X78105000Y-88265000D02*
X78105000Y-12065000D01*
X75565000Y-88265000D02*
X75565000Y-12065000D01*
M02*
