G04 #@! TF.GenerationSoftware,KiCad,Pcbnew,5.1.7-a382d34a8~88~ubuntu16.04.1*
G04 #@! TF.CreationDate,2021-03-11T21:24:15+01:00*
G04 #@! TF.ProjectId,3u-100-eurocard-eurorack-protoboard,33752d31-3030-42d6-9575-726f63617264,rev?*
G04 #@! TF.SameCoordinates,Original*
G04 #@! TF.FileFunction,Copper,L1,Top*
G04 #@! TF.FilePolarity,Positive*
%FSLAX46Y46*%
G04 Gerber Fmt 4.6, Leading zero omitted, Abs format (unit mm)*
G04 Created by KiCad (PCBNEW 5.1.7-a382d34a8~88~ubuntu16.04.1) date 2021-03-11 21:24:15*
%MOMM*%
%LPD*%
G01*
G04 APERTURE LIST*
G04 #@! TA.AperFunction,EtchedComponent*
%ADD10C,0.010000*%
G04 #@! TD*
G04 #@! TA.AperFunction,ComponentPad*
%ADD11O,2.000000X2.000000*%
G04 #@! TD*
G04 #@! TA.AperFunction,ViaPad*
%ADD12C,3.600000*%
G04 #@! TD*
G04 #@! TA.AperFunction,Conductor*
%ADD13C,2.000000*%
G04 #@! TD*
G04 APERTURE END LIST*
D10*
G36*
X95743349Y-3378879D02*
G01*
X95868983Y-3390623D01*
X95998376Y-3409792D01*
X96129949Y-3436280D01*
X96262121Y-3469980D01*
X96273815Y-3473312D01*
X96386468Y-3508714D01*
X96489327Y-3547610D01*
X96586582Y-3591607D01*
X96601138Y-3598842D01*
X96664811Y-3632726D01*
X96718532Y-3665816D01*
X96766043Y-3700726D01*
X96811085Y-3740068D01*
X96831122Y-3759492D01*
X96862793Y-3792477D01*
X96886378Y-3820972D01*
X96904984Y-3849078D01*
X96919316Y-3875952D01*
X96931147Y-3900527D01*
X96938987Y-3919593D01*
X96943658Y-3937248D01*
X96945981Y-3957591D01*
X96946775Y-3984721D01*
X96946861Y-4013536D01*
X96946609Y-4049623D01*
X96945404Y-4075556D01*
X96942569Y-4095292D01*
X96937428Y-4112786D01*
X96929306Y-4131993D01*
X96925060Y-4141062D01*
X96908673Y-4170210D01*
X96886829Y-4202081D01*
X96864704Y-4229256D01*
X96826149Y-4271448D01*
X96717969Y-4817043D01*
X96696333Y-4925789D01*
X96677157Y-5021344D01*
X96660293Y-5104387D01*
X96645595Y-5175596D01*
X96632918Y-5235649D01*
X96622114Y-5285224D01*
X96613037Y-5325000D01*
X96605540Y-5355653D01*
X96599477Y-5377863D01*
X96594702Y-5392308D01*
X96592713Y-5396907D01*
X96566758Y-5435613D01*
X96531377Y-5469776D01*
X96491256Y-5494941D01*
X96488006Y-5496422D01*
X96477596Y-5500973D01*
X96467651Y-5504883D01*
X96457339Y-5508027D01*
X96445825Y-5510281D01*
X96432274Y-5511522D01*
X96415852Y-5511626D01*
X96395724Y-5510469D01*
X96371057Y-5507928D01*
X96341016Y-5503878D01*
X96304766Y-5498196D01*
X96261474Y-5490758D01*
X96210305Y-5481440D01*
X96150424Y-5470119D01*
X96080997Y-5456670D01*
X96001190Y-5440970D01*
X95910169Y-5422895D01*
X95807098Y-5402322D01*
X95691145Y-5379126D01*
X95673333Y-5375562D01*
X95539114Y-5348616D01*
X95418657Y-5324248D01*
X95311855Y-5302435D01*
X95218601Y-5283155D01*
X95138787Y-5266384D01*
X95072307Y-5252100D01*
X95019053Y-5240280D01*
X94978917Y-5230901D01*
X94951793Y-5223941D01*
X94937573Y-5219376D01*
X94937047Y-5219141D01*
X94895827Y-5192550D01*
X94861447Y-5155713D01*
X94835789Y-5111596D01*
X94820738Y-5063163D01*
X94817536Y-5030902D01*
X94818826Y-5018896D01*
X94822694Y-4994187D01*
X94828927Y-4957905D01*
X94837315Y-4911179D01*
X94847648Y-4855138D01*
X94849344Y-4846107D01*
X95290210Y-4846107D01*
X95292624Y-4848739D01*
X95301021Y-4852273D01*
X95316208Y-4856890D01*
X95338990Y-4862768D01*
X95370175Y-4870086D01*
X95410570Y-4879026D01*
X95460980Y-4889765D01*
X95522212Y-4902484D01*
X95595074Y-4917362D01*
X95680372Y-4934579D01*
X95754472Y-4949430D01*
X95833509Y-4965230D01*
X95908463Y-4980208D01*
X95978190Y-4994135D01*
X96041544Y-5006784D01*
X96097381Y-5017924D01*
X96144556Y-5027329D01*
X96181925Y-5034770D01*
X96208343Y-5040019D01*
X96222666Y-5042847D01*
X96224955Y-5043285D01*
X96230679Y-5038224D01*
X96233403Y-5031685D01*
X96235357Y-5022850D01*
X96239827Y-5001321D01*
X96246580Y-4968246D01*
X96255387Y-4924773D01*
X96266016Y-4872049D01*
X96278236Y-4811221D01*
X96291816Y-4743438D01*
X96306525Y-4669846D01*
X96322132Y-4591594D01*
X96333074Y-4536638D01*
X96349279Y-4455631D01*
X96364913Y-4378331D01*
X96379729Y-4305910D01*
X96393478Y-4239538D01*
X96405913Y-4180388D01*
X96416786Y-4129631D01*
X96425851Y-4088437D01*
X96432858Y-4057978D01*
X96437561Y-4039425D01*
X96439278Y-4034280D01*
X96446395Y-4019428D01*
X96449442Y-4010906D01*
X96449444Y-4010832D01*
X96443310Y-4005289D01*
X96426544Y-3995629D01*
X96401602Y-3983013D01*
X96370940Y-3968601D01*
X96337014Y-3953553D01*
X96302279Y-3939030D01*
X96274418Y-3928139D01*
X96154437Y-3888497D01*
X96026038Y-3856071D01*
X95893340Y-3831603D01*
X95760463Y-3815832D01*
X95631525Y-3809497D01*
X95613404Y-3809406D01*
X95566588Y-3809567D01*
X95532076Y-3810229D01*
X95508061Y-3811808D01*
X95492736Y-3814716D01*
X95484293Y-3819371D01*
X95480926Y-3826185D01*
X95480827Y-3835574D01*
X95481252Y-3839735D01*
X95480332Y-3850284D01*
X95476852Y-3873496D01*
X95471028Y-3908197D01*
X95463075Y-3953215D01*
X95453209Y-4007376D01*
X95441644Y-4069507D01*
X95428598Y-4138435D01*
X95414284Y-4212988D01*
X95398918Y-4291992D01*
X95387702Y-4349060D01*
X95371716Y-4430099D01*
X95356522Y-4507203D01*
X95342344Y-4579236D01*
X95329404Y-4645062D01*
X95317925Y-4703545D01*
X95308131Y-4753548D01*
X95300243Y-4793937D01*
X95294485Y-4823574D01*
X95291080Y-4841323D01*
X95290210Y-4846107D01*
X94849344Y-4846107D01*
X94859713Y-4790912D01*
X94873301Y-4719632D01*
X94888201Y-4642426D01*
X94904202Y-4560425D01*
X94921092Y-4474758D01*
X94925150Y-4454304D01*
X95033186Y-3910438D01*
X95014526Y-3863794D01*
X94995718Y-3799857D01*
X94990444Y-3737416D01*
X94998140Y-3677340D01*
X95018242Y-3620499D01*
X95050186Y-3567760D01*
X95093409Y-3519994D01*
X95147347Y-3478069D01*
X95211437Y-3442855D01*
X95285114Y-3415220D01*
X95309972Y-3408287D01*
X95404784Y-3389264D01*
X95509670Y-3378093D01*
X95623051Y-3374667D01*
X95743349Y-3378879D01*
G37*
X95743349Y-3378879D02*
X95868983Y-3390623D01*
X95998376Y-3409792D01*
X96129949Y-3436280D01*
X96262121Y-3469980D01*
X96273815Y-3473312D01*
X96386468Y-3508714D01*
X96489327Y-3547610D01*
X96586582Y-3591607D01*
X96601138Y-3598842D01*
X96664811Y-3632726D01*
X96718532Y-3665816D01*
X96766043Y-3700726D01*
X96811085Y-3740068D01*
X96831122Y-3759492D01*
X96862793Y-3792477D01*
X96886378Y-3820972D01*
X96904984Y-3849078D01*
X96919316Y-3875952D01*
X96931147Y-3900527D01*
X96938987Y-3919593D01*
X96943658Y-3937248D01*
X96945981Y-3957591D01*
X96946775Y-3984721D01*
X96946861Y-4013536D01*
X96946609Y-4049623D01*
X96945404Y-4075556D01*
X96942569Y-4095292D01*
X96937428Y-4112786D01*
X96929306Y-4131993D01*
X96925060Y-4141062D01*
X96908673Y-4170210D01*
X96886829Y-4202081D01*
X96864704Y-4229256D01*
X96826149Y-4271448D01*
X96717969Y-4817043D01*
X96696333Y-4925789D01*
X96677157Y-5021344D01*
X96660293Y-5104387D01*
X96645595Y-5175596D01*
X96632918Y-5235649D01*
X96622114Y-5285224D01*
X96613037Y-5325000D01*
X96605540Y-5355653D01*
X96599477Y-5377863D01*
X96594702Y-5392308D01*
X96592713Y-5396907D01*
X96566758Y-5435613D01*
X96531377Y-5469776D01*
X96491256Y-5494941D01*
X96488006Y-5496422D01*
X96477596Y-5500973D01*
X96467651Y-5504883D01*
X96457339Y-5508027D01*
X96445825Y-5510281D01*
X96432274Y-5511522D01*
X96415852Y-5511626D01*
X96395724Y-5510469D01*
X96371057Y-5507928D01*
X96341016Y-5503878D01*
X96304766Y-5498196D01*
X96261474Y-5490758D01*
X96210305Y-5481440D01*
X96150424Y-5470119D01*
X96080997Y-5456670D01*
X96001190Y-5440970D01*
X95910169Y-5422895D01*
X95807098Y-5402322D01*
X95691145Y-5379126D01*
X95673333Y-5375562D01*
X95539114Y-5348616D01*
X95418657Y-5324248D01*
X95311855Y-5302435D01*
X95218601Y-5283155D01*
X95138787Y-5266384D01*
X95072307Y-5252100D01*
X95019053Y-5240280D01*
X94978917Y-5230901D01*
X94951793Y-5223941D01*
X94937573Y-5219376D01*
X94937047Y-5219141D01*
X94895827Y-5192550D01*
X94861447Y-5155713D01*
X94835789Y-5111596D01*
X94820738Y-5063163D01*
X94817536Y-5030902D01*
X94818826Y-5018896D01*
X94822694Y-4994187D01*
X94828927Y-4957905D01*
X94837315Y-4911179D01*
X94847648Y-4855138D01*
X94849344Y-4846107D01*
X95290210Y-4846107D01*
X95292624Y-4848739D01*
X95301021Y-4852273D01*
X95316208Y-4856890D01*
X95338990Y-4862768D01*
X95370175Y-4870086D01*
X95410570Y-4879026D01*
X95460980Y-4889765D01*
X95522212Y-4902484D01*
X95595074Y-4917362D01*
X95680372Y-4934579D01*
X95754472Y-4949430D01*
X95833509Y-4965230D01*
X95908463Y-4980208D01*
X95978190Y-4994135D01*
X96041544Y-5006784D01*
X96097381Y-5017924D01*
X96144556Y-5027329D01*
X96181925Y-5034770D01*
X96208343Y-5040019D01*
X96222666Y-5042847D01*
X96224955Y-5043285D01*
X96230679Y-5038224D01*
X96233403Y-5031685D01*
X96235357Y-5022850D01*
X96239827Y-5001321D01*
X96246580Y-4968246D01*
X96255387Y-4924773D01*
X96266016Y-4872049D01*
X96278236Y-4811221D01*
X96291816Y-4743438D01*
X96306525Y-4669846D01*
X96322132Y-4591594D01*
X96333074Y-4536638D01*
X96349279Y-4455631D01*
X96364913Y-4378331D01*
X96379729Y-4305910D01*
X96393478Y-4239538D01*
X96405913Y-4180388D01*
X96416786Y-4129631D01*
X96425851Y-4088437D01*
X96432858Y-4057978D01*
X96437561Y-4039425D01*
X96439278Y-4034280D01*
X96446395Y-4019428D01*
X96449442Y-4010906D01*
X96449444Y-4010832D01*
X96443310Y-4005289D01*
X96426544Y-3995629D01*
X96401602Y-3983013D01*
X96370940Y-3968601D01*
X96337014Y-3953553D01*
X96302279Y-3939030D01*
X96274418Y-3928139D01*
X96154437Y-3888497D01*
X96026038Y-3856071D01*
X95893340Y-3831603D01*
X95760463Y-3815832D01*
X95631525Y-3809497D01*
X95613404Y-3809406D01*
X95566588Y-3809567D01*
X95532076Y-3810229D01*
X95508061Y-3811808D01*
X95492736Y-3814716D01*
X95484293Y-3819371D01*
X95480926Y-3826185D01*
X95480827Y-3835574D01*
X95481252Y-3839735D01*
X95480332Y-3850284D01*
X95476852Y-3873496D01*
X95471028Y-3908197D01*
X95463075Y-3953215D01*
X95453209Y-4007376D01*
X95441644Y-4069507D01*
X95428598Y-4138435D01*
X95414284Y-4212988D01*
X95398918Y-4291992D01*
X95387702Y-4349060D01*
X95371716Y-4430099D01*
X95356522Y-4507203D01*
X95342344Y-4579236D01*
X95329404Y-4645062D01*
X95317925Y-4703545D01*
X95308131Y-4753548D01*
X95300243Y-4793937D01*
X95294485Y-4823574D01*
X95291080Y-4841323D01*
X95290210Y-4846107D01*
X94849344Y-4846107D01*
X94859713Y-4790912D01*
X94873301Y-4719632D01*
X94888201Y-4642426D01*
X94904202Y-4560425D01*
X94921092Y-4474758D01*
X94925150Y-4454304D01*
X95033186Y-3910438D01*
X95014526Y-3863794D01*
X94995718Y-3799857D01*
X94990444Y-3737416D01*
X94998140Y-3677340D01*
X95018242Y-3620499D01*
X95050186Y-3567760D01*
X95093409Y-3519994D01*
X95147347Y-3478069D01*
X95211437Y-3442855D01*
X95285114Y-3415220D01*
X95309972Y-3408287D01*
X95404784Y-3389264D01*
X95509670Y-3378093D01*
X95623051Y-3374667D01*
X95743349Y-3378879D01*
D11*
X93345000Y-70485000D03*
X95885000Y-70485000D03*
X93345000Y-73025000D03*
X95885000Y-73025000D03*
X93345000Y-75565000D03*
X95885000Y-75565000D03*
X93345000Y-78105000D03*
X95885000Y-78105000D03*
X93345000Y-80645000D03*
X95885000Y-80645000D03*
X93345000Y-83185000D03*
X95885000Y-83185000D03*
X93345000Y-85725000D03*
X95885000Y-85725000D03*
X93345000Y-88265000D03*
X95885000Y-88265000D03*
X83185000Y-12065000D03*
X85725000Y-12065000D03*
X88265000Y-12065000D03*
X90805000Y-12065000D03*
X93345000Y-12065000D03*
X95885000Y-12065000D03*
X95885000Y-14605000D03*
X93345000Y-14605000D03*
X90805000Y-14605000D03*
X88265000Y-14605000D03*
X85725000Y-14605000D03*
X83185000Y-14605000D03*
X95885000Y-24765000D03*
X93345000Y-24765000D03*
X90805000Y-24765000D03*
X88265000Y-24765000D03*
X85725000Y-24765000D03*
X83185000Y-24765000D03*
X83185000Y-22225000D03*
X85725000Y-22225000D03*
X88265000Y-22225000D03*
X90805000Y-22225000D03*
X93345000Y-22225000D03*
X95885000Y-22225000D03*
X95885000Y-17145000D03*
X93345000Y-17145000D03*
X90805000Y-17145000D03*
X88265000Y-17145000D03*
X85725000Y-17145000D03*
X83185000Y-17145000D03*
X83185000Y-19685000D03*
X85725000Y-19685000D03*
X88265000Y-19685000D03*
X90805000Y-19685000D03*
X93345000Y-19685000D03*
X95885000Y-19685000D03*
X83185000Y-34925000D03*
X85725000Y-34925000D03*
X88265000Y-34925000D03*
X90805000Y-34925000D03*
X93345000Y-34925000D03*
X95885000Y-34925000D03*
X95885000Y-29845000D03*
X93345000Y-29845000D03*
X90805000Y-29845000D03*
X88265000Y-29845000D03*
X85725000Y-29845000D03*
X83185000Y-29845000D03*
X95885000Y-32385000D03*
X93345000Y-32385000D03*
X90805000Y-32385000D03*
X88265000Y-32385000D03*
X85725000Y-32385000D03*
X83185000Y-32385000D03*
X83185000Y-27305000D03*
X85725000Y-27305000D03*
X88265000Y-27305000D03*
X90805000Y-27305000D03*
X93345000Y-27305000D03*
X95885000Y-27305000D03*
X83185000Y-42545000D03*
X85725000Y-42545000D03*
X88265000Y-42545000D03*
X90805000Y-42545000D03*
X93345000Y-42545000D03*
X95885000Y-42545000D03*
X95885000Y-45085000D03*
X93345000Y-45085000D03*
X90805000Y-45085000D03*
X88265000Y-45085000D03*
X85725000Y-45085000D03*
X83185000Y-45085000D03*
X83185000Y-40005000D03*
X85725000Y-40005000D03*
X88265000Y-40005000D03*
X90805000Y-40005000D03*
X93345000Y-40005000D03*
X95885000Y-40005000D03*
X95885000Y-37465000D03*
X93345000Y-37465000D03*
X90805000Y-37465000D03*
X88265000Y-37465000D03*
X85725000Y-37465000D03*
X83185000Y-37465000D03*
X83185000Y-47625000D03*
X85725000Y-47625000D03*
X88265000Y-47625000D03*
X90805000Y-47625000D03*
X93345000Y-47625000D03*
X95885000Y-47625000D03*
X95885000Y-50165000D03*
X93345000Y-50165000D03*
X90805000Y-50165000D03*
X88265000Y-50165000D03*
X85725000Y-50165000D03*
X83185000Y-50165000D03*
X83185000Y-55245000D03*
X85725000Y-55245000D03*
X88265000Y-55245000D03*
X90805000Y-55245000D03*
X93345000Y-55245000D03*
X95885000Y-55245000D03*
X95885000Y-52705000D03*
X93345000Y-52705000D03*
X90805000Y-52705000D03*
X88265000Y-52705000D03*
X85725000Y-52705000D03*
X83185000Y-52705000D03*
X83185000Y-60325000D03*
X85725000Y-60325000D03*
X88265000Y-60325000D03*
X90805000Y-60325000D03*
X93345000Y-60325000D03*
X95885000Y-60325000D03*
X95885000Y-57785000D03*
X93345000Y-57785000D03*
X90805000Y-57785000D03*
X88265000Y-57785000D03*
X85725000Y-57785000D03*
X83185000Y-57785000D03*
X83185000Y-62865000D03*
X85725000Y-62865000D03*
X88265000Y-62865000D03*
X90805000Y-62865000D03*
X93345000Y-62865000D03*
X95885000Y-62865000D03*
X1905000Y-12065000D03*
X4445000Y-12065000D03*
X6985000Y-12065000D03*
X9525000Y-12065000D03*
X12065000Y-12065000D03*
X14605000Y-12065000D03*
X17145000Y-12065000D03*
X19685000Y-12065000D03*
X22225000Y-12065000D03*
X24765000Y-12065000D03*
X27305000Y-12065000D03*
X29845000Y-12065000D03*
X32385000Y-12065000D03*
X34925000Y-12065000D03*
X37465000Y-12065000D03*
X40005000Y-12065000D03*
X42545000Y-12065000D03*
X45085000Y-12065000D03*
X47625000Y-12065000D03*
X50165000Y-12065000D03*
X52705000Y-12065000D03*
X55245000Y-12065000D03*
X57785000Y-12065000D03*
X60325000Y-12065000D03*
X62865000Y-12065000D03*
X65405000Y-12065000D03*
X67945000Y-12065000D03*
X70485000Y-12065000D03*
X73025000Y-12065000D03*
X75565000Y-12065000D03*
X78105000Y-12065000D03*
X78105000Y-88265000D03*
X75565000Y-88265000D03*
X73025000Y-88265000D03*
X70485000Y-88265000D03*
X67945000Y-88265000D03*
X65405000Y-88265000D03*
X62865000Y-88265000D03*
X60325000Y-88265000D03*
X57785000Y-88265000D03*
X55245000Y-88265000D03*
X52705000Y-88265000D03*
X50165000Y-88265000D03*
X47625000Y-88265000D03*
X45085000Y-88265000D03*
X42545000Y-88265000D03*
X40005000Y-88265000D03*
X37465000Y-88265000D03*
X34925000Y-88265000D03*
X32385000Y-88265000D03*
X29845000Y-88265000D03*
X27305000Y-88265000D03*
X24765000Y-88265000D03*
X22225000Y-88265000D03*
X19685000Y-88265000D03*
X17145000Y-88265000D03*
X14605000Y-88265000D03*
X12065000Y-88265000D03*
X9525000Y-88265000D03*
X6985000Y-88265000D03*
X4445000Y-88265000D03*
X1905000Y-88265000D03*
X1905000Y-85725000D03*
X4445000Y-85725000D03*
X6985000Y-85725000D03*
X9525000Y-85725000D03*
X12065000Y-85725000D03*
X14605000Y-85725000D03*
X17145000Y-85725000D03*
X19685000Y-85725000D03*
X22225000Y-85725000D03*
X24765000Y-85725000D03*
X27305000Y-85725000D03*
X29845000Y-85725000D03*
X32385000Y-85725000D03*
X34925000Y-85725000D03*
X37465000Y-85725000D03*
X40005000Y-85725000D03*
X42545000Y-85725000D03*
X45085000Y-85725000D03*
X47625000Y-85725000D03*
X50165000Y-85725000D03*
X52705000Y-85725000D03*
X55245000Y-85725000D03*
X57785000Y-85725000D03*
X60325000Y-85725000D03*
X62865000Y-85725000D03*
X65405000Y-85725000D03*
X67945000Y-85725000D03*
X70485000Y-85725000D03*
X73025000Y-85725000D03*
X75565000Y-85725000D03*
X78105000Y-85725000D03*
X78105000Y-83185000D03*
X75565000Y-83185000D03*
X73025000Y-83185000D03*
X70485000Y-83185000D03*
X67945000Y-83185000D03*
X65405000Y-83185000D03*
X62865000Y-83185000D03*
X60325000Y-83185000D03*
X57785000Y-83185000D03*
X55245000Y-83185000D03*
X52705000Y-83185000D03*
X50165000Y-83185000D03*
X47625000Y-83185000D03*
X45085000Y-83185000D03*
X42545000Y-83185000D03*
X40005000Y-83185000D03*
X37465000Y-83185000D03*
X34925000Y-83185000D03*
X32385000Y-83185000D03*
X29845000Y-83185000D03*
X27305000Y-83185000D03*
X24765000Y-83185000D03*
X22225000Y-83185000D03*
X19685000Y-83185000D03*
X17145000Y-83185000D03*
X14605000Y-83185000D03*
X12065000Y-83185000D03*
X9525000Y-83185000D03*
X6985000Y-83185000D03*
X4445000Y-83185000D03*
X1905000Y-83185000D03*
X78105000Y-80645000D03*
X75565000Y-80645000D03*
X73025000Y-80645000D03*
X70485000Y-80645000D03*
X67945000Y-80645000D03*
X65405000Y-80645000D03*
X62865000Y-80645000D03*
X60325000Y-80645000D03*
X57785000Y-80645000D03*
X55245000Y-80645000D03*
X52705000Y-80645000D03*
X50165000Y-80645000D03*
X47625000Y-80645000D03*
X45085000Y-80645000D03*
X42545000Y-80645000D03*
X40005000Y-80645000D03*
X37465000Y-80645000D03*
X34925000Y-80645000D03*
X32385000Y-80645000D03*
X29845000Y-80645000D03*
X27305000Y-80645000D03*
X24765000Y-80645000D03*
X22225000Y-80645000D03*
X19685000Y-80645000D03*
X17145000Y-80645000D03*
X14605000Y-80645000D03*
X12065000Y-80645000D03*
X9525000Y-80645000D03*
X6985000Y-80645000D03*
X4445000Y-80645000D03*
X1905000Y-80645000D03*
X1905000Y-75565000D03*
X4445000Y-75565000D03*
X6985000Y-75565000D03*
X9525000Y-75565000D03*
X12065000Y-75565000D03*
X14605000Y-75565000D03*
X17145000Y-75565000D03*
X19685000Y-75565000D03*
X22225000Y-75565000D03*
X24765000Y-75565000D03*
X27305000Y-75565000D03*
X29845000Y-75565000D03*
X32385000Y-75565000D03*
X34925000Y-75565000D03*
X37465000Y-75565000D03*
X40005000Y-75565000D03*
X42545000Y-75565000D03*
X45085000Y-75565000D03*
X47625000Y-75565000D03*
X50165000Y-75565000D03*
X52705000Y-75565000D03*
X55245000Y-75565000D03*
X57785000Y-75565000D03*
X60325000Y-75565000D03*
X62865000Y-75565000D03*
X65405000Y-75565000D03*
X67945000Y-75565000D03*
X70485000Y-75565000D03*
X73025000Y-75565000D03*
X75565000Y-75565000D03*
X78105000Y-75565000D03*
X1905000Y-73025000D03*
X4445000Y-73025000D03*
X6985000Y-73025000D03*
X9525000Y-73025000D03*
X12065000Y-73025000D03*
X14605000Y-73025000D03*
X17145000Y-73025000D03*
X19685000Y-73025000D03*
X22225000Y-73025000D03*
X24765000Y-73025000D03*
X27305000Y-73025000D03*
X29845000Y-73025000D03*
X32385000Y-73025000D03*
X34925000Y-73025000D03*
X37465000Y-73025000D03*
X40005000Y-73025000D03*
X42545000Y-73025000D03*
X45085000Y-73025000D03*
X47625000Y-73025000D03*
X50165000Y-73025000D03*
X52705000Y-73025000D03*
X55245000Y-73025000D03*
X57785000Y-73025000D03*
X60325000Y-73025000D03*
X62865000Y-73025000D03*
X65405000Y-73025000D03*
X67945000Y-73025000D03*
X70485000Y-73025000D03*
X73025000Y-73025000D03*
X75565000Y-73025000D03*
X78105000Y-73025000D03*
X78105000Y-78105000D03*
X75565000Y-78105000D03*
X73025000Y-78105000D03*
X70485000Y-78105000D03*
X67945000Y-78105000D03*
X65405000Y-78105000D03*
X62865000Y-78105000D03*
X60325000Y-78105000D03*
X57785000Y-78105000D03*
X55245000Y-78105000D03*
X52705000Y-78105000D03*
X50165000Y-78105000D03*
X47625000Y-78105000D03*
X45085000Y-78105000D03*
X42545000Y-78105000D03*
X40005000Y-78105000D03*
X37465000Y-78105000D03*
X34925000Y-78105000D03*
X32385000Y-78105000D03*
X29845000Y-78105000D03*
X27305000Y-78105000D03*
X24765000Y-78105000D03*
X22225000Y-78105000D03*
X19685000Y-78105000D03*
X17145000Y-78105000D03*
X14605000Y-78105000D03*
X12065000Y-78105000D03*
X9525000Y-78105000D03*
X6985000Y-78105000D03*
X4445000Y-78105000D03*
X1905000Y-78105000D03*
X78105000Y-55245000D03*
X75565000Y-55245000D03*
X73025000Y-55245000D03*
X70485000Y-55245000D03*
X67945000Y-55245000D03*
X65405000Y-55245000D03*
X62865000Y-55245000D03*
X60325000Y-55245000D03*
X57785000Y-55245000D03*
X55245000Y-55245000D03*
X52705000Y-55245000D03*
X50165000Y-55245000D03*
X47625000Y-55245000D03*
X45085000Y-55245000D03*
X42545000Y-55245000D03*
X40005000Y-55245000D03*
X37465000Y-55245000D03*
X34925000Y-55245000D03*
X32385000Y-55245000D03*
X29845000Y-55245000D03*
X27305000Y-55245000D03*
X24765000Y-55245000D03*
X22225000Y-55245000D03*
X19685000Y-55245000D03*
X17145000Y-55245000D03*
X14605000Y-55245000D03*
X12065000Y-55245000D03*
X9525000Y-55245000D03*
X6985000Y-55245000D03*
X4445000Y-55245000D03*
X1905000Y-55245000D03*
X1905000Y-62865000D03*
X4445000Y-62865000D03*
X6985000Y-62865000D03*
X9525000Y-62865000D03*
X12065000Y-62865000D03*
X14605000Y-62865000D03*
X17145000Y-62865000D03*
X19685000Y-62865000D03*
X22225000Y-62865000D03*
X24765000Y-62865000D03*
X27305000Y-62865000D03*
X29845000Y-62865000D03*
X32385000Y-62865000D03*
X34925000Y-62865000D03*
X37465000Y-62865000D03*
X40005000Y-62865000D03*
X42545000Y-62865000D03*
X45085000Y-62865000D03*
X47625000Y-62865000D03*
X50165000Y-62865000D03*
X52705000Y-62865000D03*
X55245000Y-62865000D03*
X57785000Y-62865000D03*
X60325000Y-62865000D03*
X62865000Y-62865000D03*
X65405000Y-62865000D03*
X67945000Y-62865000D03*
X70485000Y-62865000D03*
X73025000Y-62865000D03*
X75565000Y-62865000D03*
X78105000Y-62865000D03*
X78105000Y-70485000D03*
X75565000Y-70485000D03*
X73025000Y-70485000D03*
X70485000Y-70485000D03*
X67945000Y-70485000D03*
X65405000Y-70485000D03*
X62865000Y-70485000D03*
X60325000Y-70485000D03*
X57785000Y-70485000D03*
X55245000Y-70485000D03*
X52705000Y-70485000D03*
X50165000Y-70485000D03*
X47625000Y-70485000D03*
X45085000Y-70485000D03*
X42545000Y-70485000D03*
X40005000Y-70485000D03*
X37465000Y-70485000D03*
X34925000Y-70485000D03*
X32385000Y-70485000D03*
X29845000Y-70485000D03*
X27305000Y-70485000D03*
X24765000Y-70485000D03*
X22225000Y-70485000D03*
X19685000Y-70485000D03*
X17145000Y-70485000D03*
X14605000Y-70485000D03*
X12065000Y-70485000D03*
X9525000Y-70485000D03*
X6985000Y-70485000D03*
X4445000Y-70485000D03*
X1905000Y-70485000D03*
X1905000Y-60325000D03*
X4445000Y-60325000D03*
X6985000Y-60325000D03*
X9525000Y-60325000D03*
X12065000Y-60325000D03*
X14605000Y-60325000D03*
X17145000Y-60325000D03*
X19685000Y-60325000D03*
X22225000Y-60325000D03*
X24765000Y-60325000D03*
X27305000Y-60325000D03*
X29845000Y-60325000D03*
X32385000Y-60325000D03*
X34925000Y-60325000D03*
X37465000Y-60325000D03*
X40005000Y-60325000D03*
X42545000Y-60325000D03*
X45085000Y-60325000D03*
X47625000Y-60325000D03*
X50165000Y-60325000D03*
X52705000Y-60325000D03*
X55245000Y-60325000D03*
X57785000Y-60325000D03*
X60325000Y-60325000D03*
X62865000Y-60325000D03*
X65405000Y-60325000D03*
X67945000Y-60325000D03*
X70485000Y-60325000D03*
X73025000Y-60325000D03*
X75565000Y-60325000D03*
X78105000Y-60325000D03*
X78105000Y-52705000D03*
X75565000Y-52705000D03*
X73025000Y-52705000D03*
X70485000Y-52705000D03*
X67945000Y-52705000D03*
X65405000Y-52705000D03*
X62865000Y-52705000D03*
X60325000Y-52705000D03*
X57785000Y-52705000D03*
X55245000Y-52705000D03*
X52705000Y-52705000D03*
X50165000Y-52705000D03*
X47625000Y-52705000D03*
X45085000Y-52705000D03*
X42545000Y-52705000D03*
X40005000Y-52705000D03*
X37465000Y-52705000D03*
X34925000Y-52705000D03*
X32385000Y-52705000D03*
X29845000Y-52705000D03*
X27305000Y-52705000D03*
X24765000Y-52705000D03*
X22225000Y-52705000D03*
X19685000Y-52705000D03*
X17145000Y-52705000D03*
X14605000Y-52705000D03*
X12065000Y-52705000D03*
X9525000Y-52705000D03*
X6985000Y-52705000D03*
X4445000Y-52705000D03*
X1905000Y-52705000D03*
X1905000Y-57785000D03*
X4445000Y-57785000D03*
X6985000Y-57785000D03*
X9525000Y-57785000D03*
X12065000Y-57785000D03*
X14605000Y-57785000D03*
X17145000Y-57785000D03*
X19685000Y-57785000D03*
X22225000Y-57785000D03*
X24765000Y-57785000D03*
X27305000Y-57785000D03*
X29845000Y-57785000D03*
X32385000Y-57785000D03*
X34925000Y-57785000D03*
X37465000Y-57785000D03*
X40005000Y-57785000D03*
X42545000Y-57785000D03*
X45085000Y-57785000D03*
X47625000Y-57785000D03*
X50165000Y-57785000D03*
X52705000Y-57785000D03*
X55245000Y-57785000D03*
X57785000Y-57785000D03*
X60325000Y-57785000D03*
X62865000Y-57785000D03*
X65405000Y-57785000D03*
X67945000Y-57785000D03*
X70485000Y-57785000D03*
X73025000Y-57785000D03*
X75565000Y-57785000D03*
X78105000Y-57785000D03*
X78105000Y-67945000D03*
X75565000Y-67945000D03*
X73025000Y-67945000D03*
X70485000Y-67945000D03*
X67945000Y-67945000D03*
X65405000Y-67945000D03*
X62865000Y-67945000D03*
X60325000Y-67945000D03*
X57785000Y-67945000D03*
X55245000Y-67945000D03*
X52705000Y-67945000D03*
X50165000Y-67945000D03*
X47625000Y-67945000D03*
X45085000Y-67945000D03*
X42545000Y-67945000D03*
X40005000Y-67945000D03*
X37465000Y-67945000D03*
X34925000Y-67945000D03*
X32385000Y-67945000D03*
X29845000Y-67945000D03*
X27305000Y-67945000D03*
X24765000Y-67945000D03*
X22225000Y-67945000D03*
X19685000Y-67945000D03*
X17145000Y-67945000D03*
X14605000Y-67945000D03*
X12065000Y-67945000D03*
X9525000Y-67945000D03*
X6985000Y-67945000D03*
X4445000Y-67945000D03*
X1905000Y-67945000D03*
X1905000Y-65405000D03*
X4445000Y-65405000D03*
X6985000Y-65405000D03*
X9525000Y-65405000D03*
X12065000Y-65405000D03*
X14605000Y-65405000D03*
X17145000Y-65405000D03*
X19685000Y-65405000D03*
X22225000Y-65405000D03*
X24765000Y-65405000D03*
X27305000Y-65405000D03*
X29845000Y-65405000D03*
X32385000Y-65405000D03*
X34925000Y-65405000D03*
X37465000Y-65405000D03*
X40005000Y-65405000D03*
X42545000Y-65405000D03*
X45085000Y-65405000D03*
X47625000Y-65405000D03*
X50165000Y-65405000D03*
X52705000Y-65405000D03*
X55245000Y-65405000D03*
X57785000Y-65405000D03*
X60325000Y-65405000D03*
X62865000Y-65405000D03*
X65405000Y-65405000D03*
X67945000Y-65405000D03*
X70485000Y-65405000D03*
X73025000Y-65405000D03*
X75565000Y-65405000D03*
X78105000Y-65405000D03*
X78105000Y-14605000D03*
X75565000Y-14605000D03*
X73025000Y-14605000D03*
X70485000Y-14605000D03*
X67945000Y-14605000D03*
X65405000Y-14605000D03*
X62865000Y-14605000D03*
X60325000Y-14605000D03*
X57785000Y-14605000D03*
X55245000Y-14605000D03*
X52705000Y-14605000D03*
X50165000Y-14605000D03*
X47625000Y-14605000D03*
X45085000Y-14605000D03*
X42545000Y-14605000D03*
X40005000Y-14605000D03*
X37465000Y-14605000D03*
X34925000Y-14605000D03*
X32385000Y-14605000D03*
X29845000Y-14605000D03*
X27305000Y-14605000D03*
X24765000Y-14605000D03*
X22225000Y-14605000D03*
X19685000Y-14605000D03*
X17145000Y-14605000D03*
X14605000Y-14605000D03*
X12065000Y-14605000D03*
X9525000Y-14605000D03*
X6985000Y-14605000D03*
X4445000Y-14605000D03*
X1905000Y-14605000D03*
X78105000Y-19685000D03*
X75565000Y-19685000D03*
X73025000Y-19685000D03*
X70485000Y-19685000D03*
X67945000Y-19685000D03*
X65405000Y-19685000D03*
X62865000Y-19685000D03*
X60325000Y-19685000D03*
X57785000Y-19685000D03*
X55245000Y-19685000D03*
X52705000Y-19685000D03*
X50165000Y-19685000D03*
X47625000Y-19685000D03*
X45085000Y-19685000D03*
X42545000Y-19685000D03*
X40005000Y-19685000D03*
X37465000Y-19685000D03*
X34925000Y-19685000D03*
X32385000Y-19685000D03*
X29845000Y-19685000D03*
X27305000Y-19685000D03*
X24765000Y-19685000D03*
X22225000Y-19685000D03*
X19685000Y-19685000D03*
X17145000Y-19685000D03*
X14605000Y-19685000D03*
X12065000Y-19685000D03*
X9525000Y-19685000D03*
X6985000Y-19685000D03*
X4445000Y-19685000D03*
X1905000Y-19685000D03*
X1905000Y-27305000D03*
X4445000Y-27305000D03*
X6985000Y-27305000D03*
X9525000Y-27305000D03*
X12065000Y-27305000D03*
X14605000Y-27305000D03*
X17145000Y-27305000D03*
X19685000Y-27305000D03*
X22225000Y-27305000D03*
X24765000Y-27305000D03*
X27305000Y-27305000D03*
X29845000Y-27305000D03*
X32385000Y-27305000D03*
X34925000Y-27305000D03*
X37465000Y-27305000D03*
X40005000Y-27305000D03*
X42545000Y-27305000D03*
X45085000Y-27305000D03*
X47625000Y-27305000D03*
X50165000Y-27305000D03*
X52705000Y-27305000D03*
X55245000Y-27305000D03*
X57785000Y-27305000D03*
X60325000Y-27305000D03*
X62865000Y-27305000D03*
X65405000Y-27305000D03*
X67945000Y-27305000D03*
X70485000Y-27305000D03*
X73025000Y-27305000D03*
X75565000Y-27305000D03*
X78105000Y-27305000D03*
X1905000Y-24765000D03*
X4445000Y-24765000D03*
X6985000Y-24765000D03*
X9525000Y-24765000D03*
X12065000Y-24765000D03*
X14605000Y-24765000D03*
X17145000Y-24765000D03*
X19685000Y-24765000D03*
X22225000Y-24765000D03*
X24765000Y-24765000D03*
X27305000Y-24765000D03*
X29845000Y-24765000D03*
X32385000Y-24765000D03*
X34925000Y-24765000D03*
X37465000Y-24765000D03*
X40005000Y-24765000D03*
X42545000Y-24765000D03*
X45085000Y-24765000D03*
X47625000Y-24765000D03*
X50165000Y-24765000D03*
X52705000Y-24765000D03*
X55245000Y-24765000D03*
X57785000Y-24765000D03*
X60325000Y-24765000D03*
X62865000Y-24765000D03*
X65405000Y-24765000D03*
X67945000Y-24765000D03*
X70485000Y-24765000D03*
X73025000Y-24765000D03*
X75565000Y-24765000D03*
X78105000Y-24765000D03*
X78105000Y-17145000D03*
X75565000Y-17145000D03*
X73025000Y-17145000D03*
X70485000Y-17145000D03*
X67945000Y-17145000D03*
X65405000Y-17145000D03*
X62865000Y-17145000D03*
X60325000Y-17145000D03*
X57785000Y-17145000D03*
X55245000Y-17145000D03*
X52705000Y-17145000D03*
X50165000Y-17145000D03*
X47625000Y-17145000D03*
X45085000Y-17145000D03*
X42545000Y-17145000D03*
X40005000Y-17145000D03*
X37465000Y-17145000D03*
X34925000Y-17145000D03*
X32385000Y-17145000D03*
X29845000Y-17145000D03*
X27305000Y-17145000D03*
X24765000Y-17145000D03*
X22225000Y-17145000D03*
X19685000Y-17145000D03*
X17145000Y-17145000D03*
X14605000Y-17145000D03*
X12065000Y-17145000D03*
X9525000Y-17145000D03*
X6985000Y-17145000D03*
X4445000Y-17145000D03*
X1905000Y-17145000D03*
X1905000Y-22225000D03*
X4445000Y-22225000D03*
X6985000Y-22225000D03*
X9525000Y-22225000D03*
X12065000Y-22225000D03*
X14605000Y-22225000D03*
X17145000Y-22225000D03*
X19685000Y-22225000D03*
X22225000Y-22225000D03*
X24765000Y-22225000D03*
X27305000Y-22225000D03*
X29845000Y-22225000D03*
X32385000Y-22225000D03*
X34925000Y-22225000D03*
X37465000Y-22225000D03*
X40005000Y-22225000D03*
X42545000Y-22225000D03*
X45085000Y-22225000D03*
X47625000Y-22225000D03*
X50165000Y-22225000D03*
X52705000Y-22225000D03*
X55245000Y-22225000D03*
X57785000Y-22225000D03*
X60325000Y-22225000D03*
X62865000Y-22225000D03*
X65405000Y-22225000D03*
X67945000Y-22225000D03*
X70485000Y-22225000D03*
X73025000Y-22225000D03*
X75565000Y-22225000D03*
X78105000Y-22225000D03*
X1905000Y-29845000D03*
X4445000Y-29845000D03*
X6985000Y-29845000D03*
X9525000Y-29845000D03*
X12065000Y-29845000D03*
X14605000Y-29845000D03*
X17145000Y-29845000D03*
X19685000Y-29845000D03*
X22225000Y-29845000D03*
X24765000Y-29845000D03*
X27305000Y-29845000D03*
X29845000Y-29845000D03*
X32385000Y-29845000D03*
X34925000Y-29845000D03*
X37465000Y-29845000D03*
X40005000Y-29845000D03*
X42545000Y-29845000D03*
X45085000Y-29845000D03*
X47625000Y-29845000D03*
X50165000Y-29845000D03*
X52705000Y-29845000D03*
X55245000Y-29845000D03*
X57785000Y-29845000D03*
X60325000Y-29845000D03*
X62865000Y-29845000D03*
X65405000Y-29845000D03*
X67945000Y-29845000D03*
X70485000Y-29845000D03*
X73025000Y-29845000D03*
X75565000Y-29845000D03*
X78105000Y-29845000D03*
X78105000Y-37465000D03*
X75565000Y-37465000D03*
X73025000Y-37465000D03*
X70485000Y-37465000D03*
X67945000Y-37465000D03*
X65405000Y-37465000D03*
X62865000Y-37465000D03*
X60325000Y-37465000D03*
X57785000Y-37465000D03*
X55245000Y-37465000D03*
X52705000Y-37465000D03*
X50165000Y-37465000D03*
X47625000Y-37465000D03*
X45085000Y-37465000D03*
X42545000Y-37465000D03*
X40005000Y-37465000D03*
X37465000Y-37465000D03*
X34925000Y-37465000D03*
X32385000Y-37465000D03*
X29845000Y-37465000D03*
X27305000Y-37465000D03*
X24765000Y-37465000D03*
X22225000Y-37465000D03*
X19685000Y-37465000D03*
X17145000Y-37465000D03*
X14605000Y-37465000D03*
X12065000Y-37465000D03*
X9525000Y-37465000D03*
X6985000Y-37465000D03*
X4445000Y-37465000D03*
X1905000Y-37465000D03*
X78105000Y-34925000D03*
X75565000Y-34925000D03*
X73025000Y-34925000D03*
X70485000Y-34925000D03*
X67945000Y-34925000D03*
X65405000Y-34925000D03*
X62865000Y-34925000D03*
X60325000Y-34925000D03*
X57785000Y-34925000D03*
X55245000Y-34925000D03*
X52705000Y-34925000D03*
X50165000Y-34925000D03*
X47625000Y-34925000D03*
X45085000Y-34925000D03*
X42545000Y-34925000D03*
X40005000Y-34925000D03*
X37465000Y-34925000D03*
X34925000Y-34925000D03*
X32385000Y-34925000D03*
X29845000Y-34925000D03*
X27305000Y-34925000D03*
X24765000Y-34925000D03*
X22225000Y-34925000D03*
X19685000Y-34925000D03*
X17145000Y-34925000D03*
X14605000Y-34925000D03*
X12065000Y-34925000D03*
X9525000Y-34925000D03*
X6985000Y-34925000D03*
X4445000Y-34925000D03*
X1905000Y-34925000D03*
X1905000Y-32385000D03*
X4445000Y-32385000D03*
X6985000Y-32385000D03*
X9525000Y-32385000D03*
X12065000Y-32385000D03*
X14605000Y-32385000D03*
X17145000Y-32385000D03*
X19685000Y-32385000D03*
X22225000Y-32385000D03*
X24765000Y-32385000D03*
X27305000Y-32385000D03*
X29845000Y-32385000D03*
X32385000Y-32385000D03*
X34925000Y-32385000D03*
X37465000Y-32385000D03*
X40005000Y-32385000D03*
X42545000Y-32385000D03*
X45085000Y-32385000D03*
X47625000Y-32385000D03*
X50165000Y-32385000D03*
X52705000Y-32385000D03*
X55245000Y-32385000D03*
X57785000Y-32385000D03*
X60325000Y-32385000D03*
X62865000Y-32385000D03*
X65405000Y-32385000D03*
X67945000Y-32385000D03*
X70485000Y-32385000D03*
X73025000Y-32385000D03*
X75565000Y-32385000D03*
X78105000Y-32385000D03*
X78105000Y-42545000D03*
X75565000Y-42545000D03*
X73025000Y-42545000D03*
X70485000Y-42545000D03*
X67945000Y-42545000D03*
X65405000Y-42545000D03*
X62865000Y-42545000D03*
X60325000Y-42545000D03*
X57785000Y-42545000D03*
X55245000Y-42545000D03*
X52705000Y-42545000D03*
X50165000Y-42545000D03*
X47625000Y-42545000D03*
X45085000Y-42545000D03*
X42545000Y-42545000D03*
X40005000Y-42545000D03*
X37465000Y-42545000D03*
X34925000Y-42545000D03*
X32385000Y-42545000D03*
X29845000Y-42545000D03*
X27305000Y-42545000D03*
X24765000Y-42545000D03*
X22225000Y-42545000D03*
X19685000Y-42545000D03*
X17145000Y-42545000D03*
X14605000Y-42545000D03*
X12065000Y-42545000D03*
X9525000Y-42545000D03*
X6985000Y-42545000D03*
X4445000Y-42545000D03*
X1905000Y-42545000D03*
X78105000Y-40005000D03*
X75565000Y-40005000D03*
X73025000Y-40005000D03*
X70485000Y-40005000D03*
X67945000Y-40005000D03*
X65405000Y-40005000D03*
X62865000Y-40005000D03*
X60325000Y-40005000D03*
X57785000Y-40005000D03*
X55245000Y-40005000D03*
X52705000Y-40005000D03*
X50165000Y-40005000D03*
X47625000Y-40005000D03*
X45085000Y-40005000D03*
X42545000Y-40005000D03*
X40005000Y-40005000D03*
X37465000Y-40005000D03*
X34925000Y-40005000D03*
X32385000Y-40005000D03*
X29845000Y-40005000D03*
X27305000Y-40005000D03*
X24765000Y-40005000D03*
X22225000Y-40005000D03*
X19685000Y-40005000D03*
X17145000Y-40005000D03*
X14605000Y-40005000D03*
X12065000Y-40005000D03*
X9525000Y-40005000D03*
X6985000Y-40005000D03*
X4445000Y-40005000D03*
X1905000Y-40005000D03*
X1905000Y-45085000D03*
X4445000Y-45085000D03*
X6985000Y-45085000D03*
X9525000Y-45085000D03*
X12065000Y-45085000D03*
X14605000Y-45085000D03*
X17145000Y-45085000D03*
X19685000Y-45085000D03*
X22225000Y-45085000D03*
X24765000Y-45085000D03*
X27305000Y-45085000D03*
X29845000Y-45085000D03*
X32385000Y-45085000D03*
X34925000Y-45085000D03*
X37465000Y-45085000D03*
X40005000Y-45085000D03*
X42545000Y-45085000D03*
X45085000Y-45085000D03*
X47625000Y-45085000D03*
X50165000Y-45085000D03*
X52705000Y-45085000D03*
X55245000Y-45085000D03*
X57785000Y-45085000D03*
X60325000Y-45085000D03*
X62865000Y-45085000D03*
X65405000Y-45085000D03*
X67945000Y-45085000D03*
X70485000Y-45085000D03*
X73025000Y-45085000D03*
X75565000Y-45085000D03*
X78105000Y-45085000D03*
X1905000Y-47625000D03*
X4445000Y-47625000D03*
X6985000Y-47625000D03*
X9525000Y-47625000D03*
X12065000Y-47625000D03*
X14605000Y-47625000D03*
X17145000Y-47625000D03*
X19685000Y-47625000D03*
X22225000Y-47625000D03*
X24765000Y-47625000D03*
X27305000Y-47625000D03*
X29845000Y-47625000D03*
X32385000Y-47625000D03*
X34925000Y-47625000D03*
X37465000Y-47625000D03*
X40005000Y-47625000D03*
X42545000Y-47625000D03*
X45085000Y-47625000D03*
X47625000Y-47625000D03*
X50165000Y-47625000D03*
X52705000Y-47625000D03*
X55245000Y-47625000D03*
X57785000Y-47625000D03*
X60325000Y-47625000D03*
X62865000Y-47625000D03*
X65405000Y-47625000D03*
X67945000Y-47625000D03*
X70485000Y-47625000D03*
X73025000Y-47625000D03*
X75565000Y-47625000D03*
X78105000Y-47625000D03*
X78105000Y-50165000D03*
X75565000Y-50165000D03*
X73025000Y-50165000D03*
X70485000Y-50165000D03*
X67945000Y-50165000D03*
X65405000Y-50165000D03*
X62865000Y-50165000D03*
X60325000Y-50165000D03*
X57785000Y-50165000D03*
X55245000Y-50165000D03*
X52705000Y-50165000D03*
X50165000Y-50165000D03*
X47625000Y-50165000D03*
X45085000Y-50165000D03*
X42545000Y-50165000D03*
X40005000Y-50165000D03*
X37465000Y-50165000D03*
X34925000Y-50165000D03*
X32385000Y-50165000D03*
X29845000Y-50165000D03*
X27305000Y-50165000D03*
X24765000Y-50165000D03*
X22225000Y-50165000D03*
X19685000Y-50165000D03*
X17145000Y-50165000D03*
X14605000Y-50165000D03*
X12065000Y-50165000D03*
X9525000Y-50165000D03*
X6985000Y-50165000D03*
X4445000Y-50165000D03*
X1905000Y-50165000D03*
D12*
X3570000Y-94615000D03*
X3570000Y-5715000D03*
D13*
X73025000Y-12065000D02*
X73025000Y-88265000D01*
X75565000Y-88265000D02*
X75565000Y-12065000D01*
X78105000Y-12065000D02*
X78105000Y-88265000D01*
M02*
