M48
; DRILL file {KiCad 5.1.7-a382d34a8~88~ubuntu16.04.1} date Thu Mar 11 21:24:27 2021
; FORMAT={-:-/ absolute / metric / decimal}
; #@! TF.CreationDate,2021-03-11T21:24:27+01:00
; #@! TF.GenerationSoftware,Kicad,Pcbnew,5.1.7-a382d34a8~88~ubuntu16.04.1
; #@! TF.FileFunction,Plated,1,2,PTH
FMAT,2
METRIC
T1C1.000
T2C3.200
%
G90
G05
T1
X1.905Y-60.325
X4.445Y-60.325
X6.985Y-60.325
X9.525Y-60.325
X12.065Y-60.325
X14.605Y-60.325
X17.145Y-60.325
X19.685Y-60.325
X22.225Y-60.325
X24.765Y-60.325
X27.305Y-60.325
X29.845Y-60.325
X32.385Y-60.325
X34.925Y-60.325
X37.465Y-60.325
X40.005Y-60.325
X42.545Y-60.325
X45.085Y-60.325
X47.625Y-60.325
X50.165Y-60.325
X52.705Y-60.325
X55.245Y-60.325
X57.785Y-60.325
X60.325Y-60.325
X62.865Y-60.325
X65.405Y-60.325
X67.945Y-60.325
X70.485Y-60.325
X73.025Y-60.325
X75.565Y-60.325
X78.105Y-60.325
X83.185Y-47.625
X85.725Y-47.625
X88.265Y-47.625
X90.805Y-47.625
X93.345Y-47.625
X95.885Y-47.625
X1.905Y-19.685
X4.445Y-19.685
X6.985Y-19.685
X9.525Y-19.685
X12.065Y-19.685
X14.605Y-19.685
X17.145Y-19.685
X19.685Y-19.685
X22.225Y-19.685
X24.765Y-19.685
X27.305Y-19.685
X29.845Y-19.685
X32.385Y-19.685
X34.925Y-19.685
X37.465Y-19.685
X40.005Y-19.685
X42.545Y-19.685
X45.085Y-19.685
X47.625Y-19.685
X50.165Y-19.685
X52.705Y-19.685
X55.245Y-19.685
X57.785Y-19.685
X60.325Y-19.685
X62.865Y-19.685
X65.405Y-19.685
X67.945Y-19.685
X70.485Y-19.685
X73.025Y-19.685
X75.565Y-19.685
X78.105Y-19.685
X83.185Y-62.865
X85.725Y-62.865
X88.265Y-62.865
X90.805Y-62.865
X93.345Y-62.865
X95.885Y-62.865
X1.905Y-75.565
X4.445Y-75.565
X6.985Y-75.565
X9.525Y-75.565
X12.065Y-75.565
X14.605Y-75.565
X17.145Y-75.565
X19.685Y-75.565
X22.225Y-75.565
X24.765Y-75.565
X27.305Y-75.565
X29.845Y-75.565
X32.385Y-75.565
X34.925Y-75.565
X37.465Y-75.565
X40.005Y-75.565
X42.545Y-75.565
X45.085Y-75.565
X47.625Y-75.565
X50.165Y-75.565
X52.705Y-75.565
X55.245Y-75.565
X57.785Y-75.565
X60.325Y-75.565
X62.865Y-75.565
X65.405Y-75.565
X67.945Y-75.565
X70.485Y-75.565
X73.025Y-75.565
X75.565Y-75.565
X78.105Y-75.565
X83.185Y-12.065
X85.725Y-12.065
X88.265Y-12.065
X90.805Y-12.065
X93.345Y-12.065
X95.885Y-12.065
X1.905Y-42.545
X4.445Y-42.545
X6.985Y-42.545
X9.525Y-42.545
X12.065Y-42.545
X14.605Y-42.545
X17.145Y-42.545
X19.685Y-42.545
X22.225Y-42.545
X24.765Y-42.545
X27.305Y-42.545
X29.845Y-42.545
X32.385Y-42.545
X34.925Y-42.545
X37.465Y-42.545
X40.005Y-42.545
X42.545Y-42.545
X45.085Y-42.545
X47.625Y-42.545
X50.165Y-42.545
X52.705Y-42.545
X55.245Y-42.545
X57.785Y-42.545
X60.325Y-42.545
X62.865Y-42.545
X65.405Y-42.545
X67.945Y-42.545
X70.485Y-42.545
X73.025Y-42.545
X75.565Y-42.545
X78.105Y-42.545
X83.185Y-37.465
X85.725Y-37.465
X88.265Y-37.465
X90.805Y-37.465
X93.345Y-37.465
X95.885Y-37.465
X1.905Y-22.225
X4.445Y-22.225
X6.985Y-22.225
X9.525Y-22.225
X12.065Y-22.225
X14.605Y-22.225
X17.145Y-22.225
X19.685Y-22.225
X22.225Y-22.225
X24.765Y-22.225
X27.305Y-22.225
X29.845Y-22.225
X32.385Y-22.225
X34.925Y-22.225
X37.465Y-22.225
X40.005Y-22.225
X42.545Y-22.225
X45.085Y-22.225
X47.625Y-22.225
X50.165Y-22.225
X52.705Y-22.225
X55.245Y-22.225
X57.785Y-22.225
X60.325Y-22.225
X62.865Y-22.225
X65.405Y-22.225
X67.945Y-22.225
X70.485Y-22.225
X73.025Y-22.225
X75.565Y-22.225
X78.105Y-22.225
X1.905Y-85.725
X4.445Y-85.725
X6.985Y-85.725
X9.525Y-85.725
X12.065Y-85.725
X14.605Y-85.725
X17.145Y-85.725
X19.685Y-85.725
X22.225Y-85.725
X24.765Y-85.725
X27.305Y-85.725
X29.845Y-85.725
X32.385Y-85.725
X34.925Y-85.725
X37.465Y-85.725
X40.005Y-85.725
X42.545Y-85.725
X45.085Y-85.725
X47.625Y-85.725
X50.165Y-85.725
X52.705Y-85.725
X55.245Y-85.725
X57.785Y-85.725
X60.325Y-85.725
X62.865Y-85.725
X65.405Y-85.725
X67.945Y-85.725
X70.485Y-85.725
X73.025Y-85.725
X75.565Y-85.725
X78.105Y-85.725
X1.905Y-12.065
X4.445Y-12.065
X6.985Y-12.065
X9.525Y-12.065
X12.065Y-12.065
X14.605Y-12.065
X17.145Y-12.065
X19.685Y-12.065
X22.225Y-12.065
X24.765Y-12.065
X27.305Y-12.065
X29.845Y-12.065
X32.385Y-12.065
X34.925Y-12.065
X37.465Y-12.065
X40.005Y-12.065
X42.545Y-12.065
X45.085Y-12.065
X47.625Y-12.065
X50.165Y-12.065
X52.705Y-12.065
X55.245Y-12.065
X57.785Y-12.065
X60.325Y-12.065
X62.865Y-12.065
X65.405Y-12.065
X67.945Y-12.065
X70.485Y-12.065
X73.025Y-12.065
X75.565Y-12.065
X78.105Y-12.065
X1.905Y-67.945
X4.445Y-67.945
X6.985Y-67.945
X9.525Y-67.945
X12.065Y-67.945
X14.605Y-67.945
X17.145Y-67.945
X19.685Y-67.945
X22.225Y-67.945
X24.765Y-67.945
X27.305Y-67.945
X29.845Y-67.945
X32.385Y-67.945
X34.925Y-67.945
X37.465Y-67.945
X40.005Y-67.945
X42.545Y-67.945
X45.085Y-67.945
X47.625Y-67.945
X50.165Y-67.945
X52.705Y-67.945
X55.245Y-67.945
X57.785Y-67.945
X60.325Y-67.945
X62.865Y-67.945
X65.405Y-67.945
X67.945Y-67.945
X70.485Y-67.945
X73.025Y-67.945
X75.565Y-67.945
X78.105Y-67.945
X1.905Y-32.385
X4.445Y-32.385
X6.985Y-32.385
X9.525Y-32.385
X12.065Y-32.385
X14.605Y-32.385
X17.145Y-32.385
X19.685Y-32.385
X22.225Y-32.385
X24.765Y-32.385
X27.305Y-32.385
X29.845Y-32.385
X32.385Y-32.385
X34.925Y-32.385
X37.465Y-32.385
X40.005Y-32.385
X42.545Y-32.385
X45.085Y-32.385
X47.625Y-32.385
X50.165Y-32.385
X52.705Y-32.385
X55.245Y-32.385
X57.785Y-32.385
X60.325Y-32.385
X62.865Y-32.385
X65.405Y-32.385
X67.945Y-32.385
X70.485Y-32.385
X73.025Y-32.385
X75.565Y-32.385
X78.105Y-32.385
X83.185Y-19.685
X85.725Y-19.685
X88.265Y-19.685
X90.805Y-19.685
X93.345Y-19.685
X95.885Y-19.685
X83.185Y-42.545
X85.725Y-42.545
X88.265Y-42.545
X90.805Y-42.545
X93.345Y-42.545
X95.885Y-42.545
X83.185Y-34.925
X85.725Y-34.925
X88.265Y-34.925
X90.805Y-34.925
X93.345Y-34.925
X95.885Y-34.925
X1.905Y-73.025
X4.445Y-73.025
X6.985Y-73.025
X9.525Y-73.025
X12.065Y-73.025
X14.605Y-73.025
X17.145Y-73.025
X19.685Y-73.025
X22.225Y-73.025
X24.765Y-73.025
X27.305Y-73.025
X29.845Y-73.025
X32.385Y-73.025
X34.925Y-73.025
X37.465Y-73.025
X40.005Y-73.025
X42.545Y-73.025
X45.085Y-73.025
X47.625Y-73.025
X50.165Y-73.025
X52.705Y-73.025
X55.245Y-73.025
X57.785Y-73.025
X60.325Y-73.025
X62.865Y-73.025
X65.405Y-73.025
X67.945Y-73.025
X70.485Y-73.025
X73.025Y-73.025
X75.565Y-73.025
X78.105Y-73.025
X83.185Y-55.245
X85.725Y-55.245
X88.265Y-55.245
X90.805Y-55.245
X93.345Y-55.245
X95.885Y-55.245
X1.905Y-45.085
X4.445Y-45.085
X6.985Y-45.085
X9.525Y-45.085
X12.065Y-45.085
X14.605Y-45.085
X17.145Y-45.085
X19.685Y-45.085
X22.225Y-45.085
X24.765Y-45.085
X27.305Y-45.085
X29.845Y-45.085
X32.385Y-45.085
X34.925Y-45.085
X37.465Y-45.085
X40.005Y-45.085
X42.545Y-45.085
X45.085Y-45.085
X47.625Y-45.085
X50.165Y-45.085
X52.705Y-45.085
X55.245Y-45.085
X57.785Y-45.085
X60.325Y-45.085
X62.865Y-45.085
X65.405Y-45.085
X67.945Y-45.085
X70.485Y-45.085
X73.025Y-45.085
X75.565Y-45.085
X78.105Y-45.085
X1.905Y-37.465
X4.445Y-37.465
X6.985Y-37.465
X9.525Y-37.465
X12.065Y-37.465
X14.605Y-37.465
X17.145Y-37.465
X19.685Y-37.465
X22.225Y-37.465
X24.765Y-37.465
X27.305Y-37.465
X29.845Y-37.465
X32.385Y-37.465
X34.925Y-37.465
X37.465Y-37.465
X40.005Y-37.465
X42.545Y-37.465
X45.085Y-37.465
X47.625Y-37.465
X50.165Y-37.465
X52.705Y-37.465
X55.245Y-37.465
X57.785Y-37.465
X60.325Y-37.465
X62.865Y-37.465
X65.405Y-37.465
X67.945Y-37.465
X70.485Y-37.465
X73.025Y-37.465
X75.565Y-37.465
X78.105Y-37.465
X1.905Y-50.165
X4.445Y-50.165
X6.985Y-50.165
X9.525Y-50.165
X12.065Y-50.165
X14.605Y-50.165
X17.145Y-50.165
X19.685Y-50.165
X22.225Y-50.165
X24.765Y-50.165
X27.305Y-50.165
X29.845Y-50.165
X32.385Y-50.165
X34.925Y-50.165
X37.465Y-50.165
X40.005Y-50.165
X42.545Y-50.165
X45.085Y-50.165
X47.625Y-50.165
X50.165Y-50.165
X52.705Y-50.165
X55.245Y-50.165
X57.785Y-50.165
X60.325Y-50.165
X62.865Y-50.165
X65.405Y-50.165
X67.945Y-50.165
X70.485Y-50.165
X73.025Y-50.165
X75.565Y-50.165
X78.105Y-50.165
X1.905Y-34.925
X4.445Y-34.925
X6.985Y-34.925
X9.525Y-34.925
X12.065Y-34.925
X14.605Y-34.925
X17.145Y-34.925
X19.685Y-34.925
X22.225Y-34.925
X24.765Y-34.925
X27.305Y-34.925
X29.845Y-34.925
X32.385Y-34.925
X34.925Y-34.925
X37.465Y-34.925
X40.005Y-34.925
X42.545Y-34.925
X45.085Y-34.925
X47.625Y-34.925
X50.165Y-34.925
X52.705Y-34.925
X55.245Y-34.925
X57.785Y-34.925
X60.325Y-34.925
X62.865Y-34.925
X65.405Y-34.925
X67.945Y-34.925
X70.485Y-34.925
X73.025Y-34.925
X75.565Y-34.925
X78.105Y-34.925
X1.905Y-57.785
X4.445Y-57.785
X6.985Y-57.785
X9.525Y-57.785
X12.065Y-57.785
X14.605Y-57.785
X17.145Y-57.785
X19.685Y-57.785
X22.225Y-57.785
X24.765Y-57.785
X27.305Y-57.785
X29.845Y-57.785
X32.385Y-57.785
X34.925Y-57.785
X37.465Y-57.785
X40.005Y-57.785
X42.545Y-57.785
X45.085Y-57.785
X47.625Y-57.785
X50.165Y-57.785
X52.705Y-57.785
X55.245Y-57.785
X57.785Y-57.785
X60.325Y-57.785
X62.865Y-57.785
X65.405Y-57.785
X67.945Y-57.785
X70.485Y-57.785
X73.025Y-57.785
X75.565Y-57.785
X78.105Y-57.785
X83.185Y-17.145
X85.725Y-17.145
X88.265Y-17.145
X90.805Y-17.145
X93.345Y-17.145
X95.885Y-17.145
X1.905Y-29.845
X4.445Y-29.845
X6.985Y-29.845
X9.525Y-29.845
X12.065Y-29.845
X14.605Y-29.845
X17.145Y-29.845
X19.685Y-29.845
X22.225Y-29.845
X24.765Y-29.845
X27.305Y-29.845
X29.845Y-29.845
X32.385Y-29.845
X34.925Y-29.845
X37.465Y-29.845
X40.005Y-29.845
X42.545Y-29.845
X45.085Y-29.845
X47.625Y-29.845
X50.165Y-29.845
X52.705Y-29.845
X55.245Y-29.845
X57.785Y-29.845
X60.325Y-29.845
X62.865Y-29.845
X65.405Y-29.845
X67.945Y-29.845
X70.485Y-29.845
X73.025Y-29.845
X75.565Y-29.845
X78.105Y-29.845
X83.185Y-14.605
X85.725Y-14.605
X88.265Y-14.605
X90.805Y-14.605
X93.345Y-14.605
X95.885Y-14.605
X1.905Y-83.185
X4.445Y-83.185
X6.985Y-83.185
X9.525Y-83.185
X12.065Y-83.185
X14.605Y-83.185
X17.145Y-83.185
X19.685Y-83.185
X22.225Y-83.185
X24.765Y-83.185
X27.305Y-83.185
X29.845Y-83.185
X32.385Y-83.185
X34.925Y-83.185
X37.465Y-83.185
X40.005Y-83.185
X42.545Y-83.185
X45.085Y-83.185
X47.625Y-83.185
X50.165Y-83.185
X52.705Y-83.185
X55.245Y-83.185
X57.785Y-83.185
X60.325Y-83.185
X62.865Y-83.185
X65.405Y-83.185
X67.945Y-83.185
X70.485Y-83.185
X73.025Y-83.185
X75.565Y-83.185
X78.105Y-83.185
X1.905Y-52.705
X4.445Y-52.705
X6.985Y-52.705
X9.525Y-52.705
X12.065Y-52.705
X14.605Y-52.705
X17.145Y-52.705
X19.685Y-52.705
X22.225Y-52.705
X24.765Y-52.705
X27.305Y-52.705
X29.845Y-52.705
X32.385Y-52.705
X34.925Y-52.705
X37.465Y-52.705
X40.005Y-52.705
X42.545Y-52.705
X45.085Y-52.705
X47.625Y-52.705
X50.165Y-52.705
X52.705Y-52.705
X55.245Y-52.705
X57.785Y-52.705
X60.325Y-52.705
X62.865Y-52.705
X65.405Y-52.705
X67.945Y-52.705
X70.485Y-52.705
X73.025Y-52.705
X75.565Y-52.705
X78.105Y-52.705
X1.905Y-24.765
X4.445Y-24.765
X6.985Y-24.765
X9.525Y-24.765
X12.065Y-24.765
X14.605Y-24.765
X17.145Y-24.765
X19.685Y-24.765
X22.225Y-24.765
X24.765Y-24.765
X27.305Y-24.765
X29.845Y-24.765
X32.385Y-24.765
X34.925Y-24.765
X37.465Y-24.765
X40.005Y-24.765
X42.545Y-24.765
X45.085Y-24.765
X47.625Y-24.765
X50.165Y-24.765
X52.705Y-24.765
X55.245Y-24.765
X57.785Y-24.765
X60.325Y-24.765
X62.865Y-24.765
X65.405Y-24.765
X67.945Y-24.765
X70.485Y-24.765
X73.025Y-24.765
X75.565Y-24.765
X78.105Y-24.765
X1.905Y-62.865
X4.445Y-62.865
X6.985Y-62.865
X9.525Y-62.865
X12.065Y-62.865
X14.605Y-62.865
X17.145Y-62.865
X19.685Y-62.865
X22.225Y-62.865
X24.765Y-62.865
X27.305Y-62.865
X29.845Y-62.865
X32.385Y-62.865
X34.925Y-62.865
X37.465Y-62.865
X40.005Y-62.865
X42.545Y-62.865
X45.085Y-62.865
X47.625Y-62.865
X50.165Y-62.865
X52.705Y-62.865
X55.245Y-62.865
X57.785Y-62.865
X60.325Y-62.865
X62.865Y-62.865
X65.405Y-62.865
X67.945Y-62.865
X70.485Y-62.865
X73.025Y-62.865
X75.565Y-62.865
X78.105Y-62.865
X1.905Y-40.005
X4.445Y-40.005
X6.985Y-40.005
X9.525Y-40.005
X12.065Y-40.005
X14.605Y-40.005
X17.145Y-40.005
X19.685Y-40.005
X22.225Y-40.005
X24.765Y-40.005
X27.305Y-40.005
X29.845Y-40.005
X32.385Y-40.005
X34.925Y-40.005
X37.465Y-40.005
X40.005Y-40.005
X42.545Y-40.005
X45.085Y-40.005
X47.625Y-40.005
X50.165Y-40.005
X52.705Y-40.005
X55.245Y-40.005
X57.785Y-40.005
X60.325Y-40.005
X62.865Y-40.005
X65.405Y-40.005
X67.945Y-40.005
X70.485Y-40.005
X73.025Y-40.005
X75.565Y-40.005
X78.105Y-40.005
X83.185Y-57.785
X85.725Y-57.785
X88.265Y-57.785
X90.805Y-57.785
X93.345Y-57.785
X95.885Y-57.785
X83.185Y-52.705
X85.725Y-52.705
X88.265Y-52.705
X90.805Y-52.705
X93.345Y-52.705
X95.885Y-52.705
X1.905Y-47.625
X4.445Y-47.625
X6.985Y-47.625
X9.525Y-47.625
X12.065Y-47.625
X14.605Y-47.625
X17.145Y-47.625
X19.685Y-47.625
X22.225Y-47.625
X24.765Y-47.625
X27.305Y-47.625
X29.845Y-47.625
X32.385Y-47.625
X34.925Y-47.625
X37.465Y-47.625
X40.005Y-47.625
X42.545Y-47.625
X45.085Y-47.625
X47.625Y-47.625
X50.165Y-47.625
X52.705Y-47.625
X55.245Y-47.625
X57.785Y-47.625
X60.325Y-47.625
X62.865Y-47.625
X65.405Y-47.625
X67.945Y-47.625
X70.485Y-47.625
X73.025Y-47.625
X75.565Y-47.625
X78.105Y-47.625
X83.185Y-24.765
X85.725Y-24.765
X88.265Y-24.765
X90.805Y-24.765
X93.345Y-24.765
X95.885Y-24.765
X83.185Y-60.325
X85.725Y-60.325
X88.265Y-60.325
X90.805Y-60.325
X93.345Y-60.325
X95.885Y-60.325
X83.185Y-22.225
X85.725Y-22.225
X88.265Y-22.225
X90.805Y-22.225
X93.345Y-22.225
X95.885Y-22.225
X1.905Y-70.485
X4.445Y-70.485
X6.985Y-70.485
X9.525Y-70.485
X12.065Y-70.485
X14.605Y-70.485
X17.145Y-70.485
X19.685Y-70.485
X22.225Y-70.485
X24.765Y-70.485
X27.305Y-70.485
X29.845Y-70.485
X32.385Y-70.485
X34.925Y-70.485
X37.465Y-70.485
X40.005Y-70.485
X42.545Y-70.485
X45.085Y-70.485
X47.625Y-70.485
X50.165Y-70.485
X52.705Y-70.485
X55.245Y-70.485
X57.785Y-70.485
X60.325Y-70.485
X62.865Y-70.485
X65.405Y-70.485
X67.945Y-70.485
X70.485Y-70.485
X73.025Y-70.485
X75.565Y-70.485
X78.105Y-70.485
X93.345Y-70.485
X93.345Y-73.025
X93.345Y-75.565
X93.345Y-78.105
X93.345Y-80.645
X93.345Y-83.185
X93.345Y-85.725
X93.345Y-88.265
X95.885Y-70.485
X95.885Y-73.025
X95.885Y-75.565
X95.885Y-78.105
X95.885Y-80.645
X95.885Y-83.185
X95.885Y-85.725
X95.885Y-88.265
X1.905Y-78.105
X4.445Y-78.105
X6.985Y-78.105
X9.525Y-78.105
X12.065Y-78.105
X14.605Y-78.105
X17.145Y-78.105
X19.685Y-78.105
X22.225Y-78.105
X24.765Y-78.105
X27.305Y-78.105
X29.845Y-78.105
X32.385Y-78.105
X34.925Y-78.105
X37.465Y-78.105
X40.005Y-78.105
X42.545Y-78.105
X45.085Y-78.105
X47.625Y-78.105
X50.165Y-78.105
X52.705Y-78.105
X55.245Y-78.105
X57.785Y-78.105
X60.325Y-78.105
X62.865Y-78.105
X65.405Y-78.105
X67.945Y-78.105
X70.485Y-78.105
X73.025Y-78.105
X75.565Y-78.105
X78.105Y-78.105
X1.905Y-55.245
X4.445Y-55.245
X6.985Y-55.245
X9.525Y-55.245
X12.065Y-55.245
X14.605Y-55.245
X17.145Y-55.245
X19.685Y-55.245
X22.225Y-55.245
X24.765Y-55.245
X27.305Y-55.245
X29.845Y-55.245
X32.385Y-55.245
X34.925Y-55.245
X37.465Y-55.245
X40.005Y-55.245
X42.545Y-55.245
X45.085Y-55.245
X47.625Y-55.245
X50.165Y-55.245
X52.705Y-55.245
X55.245Y-55.245
X57.785Y-55.245
X60.325Y-55.245
X62.865Y-55.245
X65.405Y-55.245
X67.945Y-55.245
X70.485Y-55.245
X73.025Y-55.245
X75.565Y-55.245
X78.105Y-55.245
X1.905Y-17.145
X4.445Y-17.145
X6.985Y-17.145
X9.525Y-17.145
X12.065Y-17.145
X14.605Y-17.145
X17.145Y-17.145
X19.685Y-17.145
X22.225Y-17.145
X24.765Y-17.145
X27.305Y-17.145
X29.845Y-17.145
X32.385Y-17.145
X34.925Y-17.145
X37.465Y-17.145
X40.005Y-17.145
X42.545Y-17.145
X45.085Y-17.145
X47.625Y-17.145
X50.165Y-17.145
X52.705Y-17.145
X55.245Y-17.145
X57.785Y-17.145
X60.325Y-17.145
X62.865Y-17.145
X65.405Y-17.145
X67.945Y-17.145
X70.485Y-17.145
X73.025Y-17.145
X75.565Y-17.145
X78.105Y-17.145
X83.185Y-40.005
X85.725Y-40.005
X88.265Y-40.005
X90.805Y-40.005
X93.345Y-40.005
X95.885Y-40.005
X83.185Y-32.385
X85.725Y-32.385
X88.265Y-32.385
X90.805Y-32.385
X93.345Y-32.385
X95.885Y-32.385
X83.185Y-27.305
X85.725Y-27.305
X88.265Y-27.305
X90.805Y-27.305
X93.345Y-27.305
X95.885Y-27.305
X1.905Y-65.405
X4.445Y-65.405
X6.985Y-65.405
X9.525Y-65.405
X12.065Y-65.405
X14.605Y-65.405
X17.145Y-65.405
X19.685Y-65.405
X22.225Y-65.405
X24.765Y-65.405
X27.305Y-65.405
X29.845Y-65.405
X32.385Y-65.405
X34.925Y-65.405
X37.465Y-65.405
X40.005Y-65.405
X42.545Y-65.405
X45.085Y-65.405
X47.625Y-65.405
X50.165Y-65.405
X52.705Y-65.405
X55.245Y-65.405
X57.785Y-65.405
X60.325Y-65.405
X62.865Y-65.405
X65.405Y-65.405
X67.945Y-65.405
X70.485Y-65.405
X73.025Y-65.405
X75.565Y-65.405
X78.105Y-65.405
X83.185Y-29.845
X85.725Y-29.845
X88.265Y-29.845
X90.805Y-29.845
X93.345Y-29.845
X95.885Y-29.845
X83.185Y-45.085
X85.725Y-45.085
X88.265Y-45.085
X90.805Y-45.085
X93.345Y-45.085
X95.885Y-45.085
X1.905Y-14.605
X4.445Y-14.605
X6.985Y-14.605
X9.525Y-14.605
X12.065Y-14.605
X14.605Y-14.605
X17.145Y-14.605
X19.685Y-14.605
X22.225Y-14.605
X24.765Y-14.605
X27.305Y-14.605
X29.845Y-14.605
X32.385Y-14.605
X34.925Y-14.605
X37.465Y-14.605
X40.005Y-14.605
X42.545Y-14.605
X45.085Y-14.605
X47.625Y-14.605
X50.165Y-14.605
X52.705Y-14.605
X55.245Y-14.605
X57.785Y-14.605
X60.325Y-14.605
X62.865Y-14.605
X65.405Y-14.605
X67.945Y-14.605
X70.485Y-14.605
X73.025Y-14.605
X75.565Y-14.605
X78.105Y-14.605
X83.185Y-50.165
X85.725Y-50.165
X88.265Y-50.165
X90.805Y-50.165
X93.345Y-50.165
X95.885Y-50.165
X1.905Y-80.645
X4.445Y-80.645
X6.985Y-80.645
X9.525Y-80.645
X12.065Y-80.645
X14.605Y-80.645
X17.145Y-80.645
X19.685Y-80.645
X22.225Y-80.645
X24.765Y-80.645
X27.305Y-80.645
X29.845Y-80.645
X32.385Y-80.645
X34.925Y-80.645
X37.465Y-80.645
X40.005Y-80.645
X42.545Y-80.645
X45.085Y-80.645
X47.625Y-80.645
X50.165Y-80.645
X52.705Y-80.645
X55.245Y-80.645
X57.785Y-80.645
X60.325Y-80.645
X62.865Y-80.645
X65.405Y-80.645
X67.945Y-80.645
X70.485Y-80.645
X73.025Y-80.645
X75.565Y-80.645
X78.105Y-80.645
X1.905Y-88.265
X4.445Y-88.265
X6.985Y-88.265
X9.525Y-88.265
X12.065Y-88.265
X14.605Y-88.265
X17.145Y-88.265
X19.685Y-88.265
X22.225Y-88.265
X24.765Y-88.265
X27.305Y-88.265
X29.845Y-88.265
X32.385Y-88.265
X34.925Y-88.265
X37.465Y-88.265
X40.005Y-88.265
X42.545Y-88.265
X45.085Y-88.265
X47.625Y-88.265
X50.165Y-88.265
X52.705Y-88.265
X55.245Y-88.265
X57.785Y-88.265
X60.325Y-88.265
X62.865Y-88.265
X65.405Y-88.265
X67.945Y-88.265
X70.485Y-88.265
X73.025Y-88.265
X75.565Y-88.265
X78.105Y-88.265
X1.905Y-27.305
X4.445Y-27.305
X6.985Y-27.305
X9.525Y-27.305
X12.065Y-27.305
X14.605Y-27.305
X17.145Y-27.305
X19.685Y-27.305
X22.225Y-27.305
X24.765Y-27.305
X27.305Y-27.305
X29.845Y-27.305
X32.385Y-27.305
X34.925Y-27.305
X37.465Y-27.305
X40.005Y-27.305
X42.545Y-27.305
X45.085Y-27.305
X47.625Y-27.305
X50.165Y-27.305
X52.705Y-27.305
X55.245Y-27.305
X57.785Y-27.305
X60.325Y-27.305
X62.865Y-27.305
X65.405Y-27.305
X67.945Y-27.305
X70.485Y-27.305
X73.025Y-27.305
X75.565Y-27.305
X78.105Y-27.305
T2
X3.57Y-5.715
X3.57Y-94.615
T0
M30
