G04 #@! TF.GenerationSoftware,KiCad,Pcbnew,5.1.7-a382d34a8~88~ubuntu16.04.1*
G04 #@! TF.CreationDate,2021-03-11T21:24:15+01:00*
G04 #@! TF.ProjectId,3u-100-eurocard-eurorack-protoboard,33752d31-3030-42d6-9575-726f63617264,rev?*
G04 #@! TF.SameCoordinates,Original*
G04 #@! TF.FileFunction,Soldermask,Top*
G04 #@! TF.FilePolarity,Negative*
%FSLAX46Y46*%
G04 Gerber Fmt 4.6, Leading zero omitted, Abs format (unit mm)*
G04 Created by KiCad (PCBNEW 5.1.7-a382d34a8~88~ubuntu16.04.1) date 2021-03-11 21:24:15*
%MOMM*%
%LPD*%
G01*
G04 APERTURE LIST*
%ADD10C,0.010000*%
%ADD11O,2.102000X2.102000*%
G04 APERTURE END LIST*
D10*
G36*
X95743349Y-3379569D02*
G01*
X95868983Y-3391313D01*
X95998376Y-3410482D01*
X96129949Y-3436970D01*
X96262121Y-3470670D01*
X96273815Y-3474002D01*
X96386468Y-3509404D01*
X96489327Y-3548300D01*
X96586582Y-3592297D01*
X96601138Y-3599532D01*
X96664811Y-3633416D01*
X96718532Y-3666506D01*
X96766043Y-3701416D01*
X96811085Y-3740758D01*
X96831122Y-3760182D01*
X96862793Y-3793167D01*
X96886378Y-3821662D01*
X96904984Y-3849768D01*
X96919316Y-3876642D01*
X96931147Y-3901217D01*
X96938987Y-3920283D01*
X96943658Y-3937938D01*
X96945981Y-3958281D01*
X96946775Y-3985411D01*
X96946861Y-4014226D01*
X96946609Y-4050313D01*
X96945404Y-4076246D01*
X96942569Y-4095982D01*
X96937428Y-4113476D01*
X96929306Y-4132683D01*
X96925060Y-4141752D01*
X96908673Y-4170900D01*
X96886829Y-4202771D01*
X96864704Y-4229946D01*
X96826149Y-4272138D01*
X96717969Y-4817733D01*
X96696333Y-4926479D01*
X96677157Y-5022034D01*
X96660293Y-5105077D01*
X96645595Y-5176286D01*
X96632918Y-5236339D01*
X96622114Y-5285914D01*
X96613037Y-5325690D01*
X96605540Y-5356343D01*
X96599477Y-5378553D01*
X96594702Y-5392998D01*
X96592713Y-5397597D01*
X96566758Y-5436303D01*
X96531377Y-5470466D01*
X96491256Y-5495631D01*
X96488006Y-5497112D01*
X96477596Y-5501663D01*
X96467651Y-5505573D01*
X96457339Y-5508717D01*
X96445825Y-5510971D01*
X96432274Y-5512212D01*
X96415852Y-5512316D01*
X96395724Y-5511159D01*
X96371057Y-5508618D01*
X96341016Y-5504568D01*
X96304766Y-5498886D01*
X96261474Y-5491448D01*
X96210305Y-5482130D01*
X96150424Y-5470809D01*
X96080997Y-5457360D01*
X96001190Y-5441660D01*
X95910169Y-5423585D01*
X95807098Y-5403012D01*
X95691145Y-5379816D01*
X95673333Y-5376252D01*
X95539114Y-5349306D01*
X95418657Y-5324938D01*
X95311855Y-5303125D01*
X95218601Y-5283845D01*
X95138787Y-5267074D01*
X95072307Y-5252790D01*
X95019053Y-5240970D01*
X94978917Y-5231591D01*
X94951793Y-5224631D01*
X94937573Y-5220066D01*
X94937047Y-5219831D01*
X94895827Y-5193240D01*
X94861447Y-5156403D01*
X94835789Y-5112286D01*
X94820738Y-5063853D01*
X94817536Y-5031592D01*
X94818826Y-5019586D01*
X94822694Y-4994877D01*
X94828927Y-4958595D01*
X94837315Y-4911869D01*
X94847648Y-4855828D01*
X94849344Y-4846797D01*
X95290210Y-4846797D01*
X95292624Y-4849429D01*
X95301021Y-4852963D01*
X95316208Y-4857580D01*
X95338990Y-4863458D01*
X95370175Y-4870776D01*
X95410570Y-4879716D01*
X95460980Y-4890455D01*
X95522212Y-4903174D01*
X95595074Y-4918052D01*
X95680372Y-4935269D01*
X95754472Y-4950120D01*
X95833509Y-4965920D01*
X95908463Y-4980898D01*
X95978190Y-4994825D01*
X96041544Y-5007474D01*
X96097381Y-5018614D01*
X96144556Y-5028019D01*
X96181925Y-5035460D01*
X96208343Y-5040709D01*
X96222666Y-5043537D01*
X96224955Y-5043975D01*
X96230679Y-5038914D01*
X96233403Y-5032375D01*
X96235357Y-5023540D01*
X96239827Y-5002011D01*
X96246580Y-4968936D01*
X96255387Y-4925463D01*
X96266016Y-4872739D01*
X96278236Y-4811911D01*
X96291816Y-4744128D01*
X96306525Y-4670536D01*
X96322132Y-4592284D01*
X96333074Y-4537328D01*
X96349279Y-4456321D01*
X96364913Y-4379021D01*
X96379729Y-4306600D01*
X96393478Y-4240228D01*
X96405913Y-4181078D01*
X96416786Y-4130321D01*
X96425851Y-4089127D01*
X96432858Y-4058668D01*
X96437561Y-4040115D01*
X96439278Y-4034970D01*
X96446395Y-4020118D01*
X96449442Y-4011596D01*
X96449444Y-4011522D01*
X96443310Y-4005979D01*
X96426544Y-3996319D01*
X96401602Y-3983703D01*
X96370940Y-3969291D01*
X96337014Y-3954243D01*
X96302279Y-3939720D01*
X96274418Y-3928829D01*
X96154437Y-3889187D01*
X96026038Y-3856761D01*
X95893340Y-3832293D01*
X95760463Y-3816522D01*
X95631525Y-3810187D01*
X95613404Y-3810096D01*
X95566588Y-3810257D01*
X95532076Y-3810919D01*
X95508061Y-3812498D01*
X95492736Y-3815406D01*
X95484293Y-3820061D01*
X95480926Y-3826875D01*
X95480827Y-3836264D01*
X95481252Y-3840425D01*
X95480332Y-3850974D01*
X95476852Y-3874186D01*
X95471028Y-3908887D01*
X95463075Y-3953905D01*
X95453209Y-4008066D01*
X95441644Y-4070197D01*
X95428598Y-4139125D01*
X95414284Y-4213678D01*
X95398918Y-4292682D01*
X95387702Y-4349750D01*
X95371716Y-4430789D01*
X95356522Y-4507893D01*
X95342344Y-4579926D01*
X95329404Y-4645752D01*
X95317925Y-4704235D01*
X95308131Y-4754238D01*
X95300243Y-4794627D01*
X95294485Y-4824264D01*
X95291080Y-4842013D01*
X95290210Y-4846797D01*
X94849344Y-4846797D01*
X94859713Y-4791602D01*
X94873301Y-4720322D01*
X94888201Y-4643116D01*
X94904202Y-4561115D01*
X94921092Y-4475448D01*
X94925150Y-4454994D01*
X95033186Y-3911128D01*
X95014526Y-3864484D01*
X94995718Y-3800547D01*
X94990444Y-3738106D01*
X94998140Y-3678030D01*
X95018242Y-3621189D01*
X95050186Y-3568450D01*
X95093409Y-3520684D01*
X95147347Y-3478759D01*
X95211437Y-3443545D01*
X95285114Y-3415910D01*
X95309972Y-3408977D01*
X95404784Y-3389954D01*
X95509670Y-3378783D01*
X95623051Y-3375357D01*
X95743349Y-3379569D01*
G37*
X95743349Y-3379569D02*
X95868983Y-3391313D01*
X95998376Y-3410482D01*
X96129949Y-3436970D01*
X96262121Y-3470670D01*
X96273815Y-3474002D01*
X96386468Y-3509404D01*
X96489327Y-3548300D01*
X96586582Y-3592297D01*
X96601138Y-3599532D01*
X96664811Y-3633416D01*
X96718532Y-3666506D01*
X96766043Y-3701416D01*
X96811085Y-3740758D01*
X96831122Y-3760182D01*
X96862793Y-3793167D01*
X96886378Y-3821662D01*
X96904984Y-3849768D01*
X96919316Y-3876642D01*
X96931147Y-3901217D01*
X96938987Y-3920283D01*
X96943658Y-3937938D01*
X96945981Y-3958281D01*
X96946775Y-3985411D01*
X96946861Y-4014226D01*
X96946609Y-4050313D01*
X96945404Y-4076246D01*
X96942569Y-4095982D01*
X96937428Y-4113476D01*
X96929306Y-4132683D01*
X96925060Y-4141752D01*
X96908673Y-4170900D01*
X96886829Y-4202771D01*
X96864704Y-4229946D01*
X96826149Y-4272138D01*
X96717969Y-4817733D01*
X96696333Y-4926479D01*
X96677157Y-5022034D01*
X96660293Y-5105077D01*
X96645595Y-5176286D01*
X96632918Y-5236339D01*
X96622114Y-5285914D01*
X96613037Y-5325690D01*
X96605540Y-5356343D01*
X96599477Y-5378553D01*
X96594702Y-5392998D01*
X96592713Y-5397597D01*
X96566758Y-5436303D01*
X96531377Y-5470466D01*
X96491256Y-5495631D01*
X96488006Y-5497112D01*
X96477596Y-5501663D01*
X96467651Y-5505573D01*
X96457339Y-5508717D01*
X96445825Y-5510971D01*
X96432274Y-5512212D01*
X96415852Y-5512316D01*
X96395724Y-5511159D01*
X96371057Y-5508618D01*
X96341016Y-5504568D01*
X96304766Y-5498886D01*
X96261474Y-5491448D01*
X96210305Y-5482130D01*
X96150424Y-5470809D01*
X96080997Y-5457360D01*
X96001190Y-5441660D01*
X95910169Y-5423585D01*
X95807098Y-5403012D01*
X95691145Y-5379816D01*
X95673333Y-5376252D01*
X95539114Y-5349306D01*
X95418657Y-5324938D01*
X95311855Y-5303125D01*
X95218601Y-5283845D01*
X95138787Y-5267074D01*
X95072307Y-5252790D01*
X95019053Y-5240970D01*
X94978917Y-5231591D01*
X94951793Y-5224631D01*
X94937573Y-5220066D01*
X94937047Y-5219831D01*
X94895827Y-5193240D01*
X94861447Y-5156403D01*
X94835789Y-5112286D01*
X94820738Y-5063853D01*
X94817536Y-5031592D01*
X94818826Y-5019586D01*
X94822694Y-4994877D01*
X94828927Y-4958595D01*
X94837315Y-4911869D01*
X94847648Y-4855828D01*
X94849344Y-4846797D01*
X95290210Y-4846797D01*
X95292624Y-4849429D01*
X95301021Y-4852963D01*
X95316208Y-4857580D01*
X95338990Y-4863458D01*
X95370175Y-4870776D01*
X95410570Y-4879716D01*
X95460980Y-4890455D01*
X95522212Y-4903174D01*
X95595074Y-4918052D01*
X95680372Y-4935269D01*
X95754472Y-4950120D01*
X95833509Y-4965920D01*
X95908463Y-4980898D01*
X95978190Y-4994825D01*
X96041544Y-5007474D01*
X96097381Y-5018614D01*
X96144556Y-5028019D01*
X96181925Y-5035460D01*
X96208343Y-5040709D01*
X96222666Y-5043537D01*
X96224955Y-5043975D01*
X96230679Y-5038914D01*
X96233403Y-5032375D01*
X96235357Y-5023540D01*
X96239827Y-5002011D01*
X96246580Y-4968936D01*
X96255387Y-4925463D01*
X96266016Y-4872739D01*
X96278236Y-4811911D01*
X96291816Y-4744128D01*
X96306525Y-4670536D01*
X96322132Y-4592284D01*
X96333074Y-4537328D01*
X96349279Y-4456321D01*
X96364913Y-4379021D01*
X96379729Y-4306600D01*
X96393478Y-4240228D01*
X96405913Y-4181078D01*
X96416786Y-4130321D01*
X96425851Y-4089127D01*
X96432858Y-4058668D01*
X96437561Y-4040115D01*
X96439278Y-4034970D01*
X96446395Y-4020118D01*
X96449442Y-4011596D01*
X96449444Y-4011522D01*
X96443310Y-4005979D01*
X96426544Y-3996319D01*
X96401602Y-3983703D01*
X96370940Y-3969291D01*
X96337014Y-3954243D01*
X96302279Y-3939720D01*
X96274418Y-3928829D01*
X96154437Y-3889187D01*
X96026038Y-3856761D01*
X95893340Y-3832293D01*
X95760463Y-3816522D01*
X95631525Y-3810187D01*
X95613404Y-3810096D01*
X95566588Y-3810257D01*
X95532076Y-3810919D01*
X95508061Y-3812498D01*
X95492736Y-3815406D01*
X95484293Y-3820061D01*
X95480926Y-3826875D01*
X95480827Y-3836264D01*
X95481252Y-3840425D01*
X95480332Y-3850974D01*
X95476852Y-3874186D01*
X95471028Y-3908887D01*
X95463075Y-3953905D01*
X95453209Y-4008066D01*
X95441644Y-4070197D01*
X95428598Y-4139125D01*
X95414284Y-4213678D01*
X95398918Y-4292682D01*
X95387702Y-4349750D01*
X95371716Y-4430789D01*
X95356522Y-4507893D01*
X95342344Y-4579926D01*
X95329404Y-4645752D01*
X95317925Y-4704235D01*
X95308131Y-4754238D01*
X95300243Y-4794627D01*
X95294485Y-4824264D01*
X95291080Y-4842013D01*
X95290210Y-4846797D01*
X94849344Y-4846797D01*
X94859713Y-4791602D01*
X94873301Y-4720322D01*
X94888201Y-4643116D01*
X94904202Y-4561115D01*
X94921092Y-4475448D01*
X94925150Y-4454994D01*
X95033186Y-3911128D01*
X95014526Y-3864484D01*
X94995718Y-3800547D01*
X94990444Y-3738106D01*
X94998140Y-3678030D01*
X95018242Y-3621189D01*
X95050186Y-3568450D01*
X95093409Y-3520684D01*
X95147347Y-3478759D01*
X95211437Y-3443545D01*
X95285114Y-3415910D01*
X95309972Y-3408977D01*
X95404784Y-3389954D01*
X95509670Y-3378783D01*
X95623051Y-3375357D01*
X95743349Y-3379569D01*
G36*
X95743349Y-3379569D02*
G01*
X95868983Y-3391313D01*
X95998376Y-3410482D01*
X96129949Y-3436970D01*
X96262121Y-3470670D01*
X96273815Y-3474002D01*
X96386468Y-3509404D01*
X96489327Y-3548300D01*
X96586582Y-3592297D01*
X96601138Y-3599532D01*
X96664811Y-3633416D01*
X96718532Y-3666506D01*
X96766043Y-3701416D01*
X96811085Y-3740758D01*
X96831122Y-3760182D01*
X96862793Y-3793167D01*
X96886378Y-3821662D01*
X96904984Y-3849768D01*
X96919316Y-3876642D01*
X96931147Y-3901217D01*
X96938987Y-3920283D01*
X96943658Y-3937938D01*
X96945981Y-3958281D01*
X96946775Y-3985411D01*
X96946861Y-4014226D01*
X96946609Y-4050313D01*
X96945404Y-4076246D01*
X96942569Y-4095982D01*
X96937428Y-4113476D01*
X96929306Y-4132683D01*
X96925060Y-4141752D01*
X96908673Y-4170900D01*
X96886829Y-4202771D01*
X96864704Y-4229946D01*
X96826149Y-4272138D01*
X96717969Y-4817733D01*
X96696333Y-4926479D01*
X96677157Y-5022034D01*
X96660293Y-5105077D01*
X96645595Y-5176286D01*
X96632918Y-5236339D01*
X96622114Y-5285914D01*
X96613037Y-5325690D01*
X96605540Y-5356343D01*
X96599477Y-5378553D01*
X96594702Y-5392998D01*
X96592713Y-5397597D01*
X96566758Y-5436303D01*
X96531377Y-5470466D01*
X96491256Y-5495631D01*
X96488006Y-5497112D01*
X96477596Y-5501663D01*
X96467651Y-5505573D01*
X96457339Y-5508717D01*
X96445825Y-5510971D01*
X96432274Y-5512212D01*
X96415852Y-5512316D01*
X96395724Y-5511159D01*
X96371057Y-5508618D01*
X96341016Y-5504568D01*
X96304766Y-5498886D01*
X96261474Y-5491448D01*
X96210305Y-5482130D01*
X96150424Y-5470809D01*
X96080997Y-5457360D01*
X96001190Y-5441660D01*
X95910169Y-5423585D01*
X95807098Y-5403012D01*
X95691145Y-5379816D01*
X95673333Y-5376252D01*
X95539114Y-5349306D01*
X95418657Y-5324938D01*
X95311855Y-5303125D01*
X95218601Y-5283845D01*
X95138787Y-5267074D01*
X95072307Y-5252790D01*
X95019053Y-5240970D01*
X94978917Y-5231591D01*
X94951793Y-5224631D01*
X94937573Y-5220066D01*
X94937047Y-5219831D01*
X94895827Y-5193240D01*
X94861447Y-5156403D01*
X94835789Y-5112286D01*
X94820738Y-5063853D01*
X94817536Y-5031592D01*
X94818826Y-5019586D01*
X94822694Y-4994877D01*
X94828927Y-4958595D01*
X94837315Y-4911869D01*
X94847648Y-4855828D01*
X94849344Y-4846797D01*
X95290210Y-4846797D01*
X95292624Y-4849429D01*
X95301021Y-4852963D01*
X95316208Y-4857580D01*
X95338990Y-4863458D01*
X95370175Y-4870776D01*
X95410570Y-4879716D01*
X95460980Y-4890455D01*
X95522212Y-4903174D01*
X95595074Y-4918052D01*
X95680372Y-4935269D01*
X95754472Y-4950120D01*
X95833509Y-4965920D01*
X95908463Y-4980898D01*
X95978190Y-4994825D01*
X96041544Y-5007474D01*
X96097381Y-5018614D01*
X96144556Y-5028019D01*
X96181925Y-5035460D01*
X96208343Y-5040709D01*
X96222666Y-5043537D01*
X96224955Y-5043975D01*
X96230679Y-5038914D01*
X96233403Y-5032375D01*
X96235357Y-5023540D01*
X96239827Y-5002011D01*
X96246580Y-4968936D01*
X96255387Y-4925463D01*
X96266016Y-4872739D01*
X96278236Y-4811911D01*
X96291816Y-4744128D01*
X96306525Y-4670536D01*
X96322132Y-4592284D01*
X96333074Y-4537328D01*
X96349279Y-4456321D01*
X96364913Y-4379021D01*
X96379729Y-4306600D01*
X96393478Y-4240228D01*
X96405913Y-4181078D01*
X96416786Y-4130321D01*
X96425851Y-4089127D01*
X96432858Y-4058668D01*
X96437561Y-4040115D01*
X96439278Y-4034970D01*
X96446395Y-4020118D01*
X96449442Y-4011596D01*
X96449444Y-4011522D01*
X96443310Y-4005979D01*
X96426544Y-3996319D01*
X96401602Y-3983703D01*
X96370940Y-3969291D01*
X96337014Y-3954243D01*
X96302279Y-3939720D01*
X96274418Y-3928829D01*
X96154437Y-3889187D01*
X96026038Y-3856761D01*
X95893340Y-3832293D01*
X95760463Y-3816522D01*
X95631525Y-3810187D01*
X95613404Y-3810096D01*
X95566588Y-3810257D01*
X95532076Y-3810919D01*
X95508061Y-3812498D01*
X95492736Y-3815406D01*
X95484293Y-3820061D01*
X95480926Y-3826875D01*
X95480827Y-3836264D01*
X95481252Y-3840425D01*
X95480332Y-3850974D01*
X95476852Y-3874186D01*
X95471028Y-3908887D01*
X95463075Y-3953905D01*
X95453209Y-4008066D01*
X95441644Y-4070197D01*
X95428598Y-4139125D01*
X95414284Y-4213678D01*
X95398918Y-4292682D01*
X95387702Y-4349750D01*
X95371716Y-4430789D01*
X95356522Y-4507893D01*
X95342344Y-4579926D01*
X95329404Y-4645752D01*
X95317925Y-4704235D01*
X95308131Y-4754238D01*
X95300243Y-4794627D01*
X95294485Y-4824264D01*
X95291080Y-4842013D01*
X95290210Y-4846797D01*
X94849344Y-4846797D01*
X94859713Y-4791602D01*
X94873301Y-4720322D01*
X94888201Y-4643116D01*
X94904202Y-4561115D01*
X94921092Y-4475448D01*
X94925150Y-4454994D01*
X95033186Y-3911128D01*
X95014526Y-3864484D01*
X94995718Y-3800547D01*
X94990444Y-3738106D01*
X94998140Y-3678030D01*
X95018242Y-3621189D01*
X95050186Y-3568450D01*
X95093409Y-3520684D01*
X95147347Y-3478759D01*
X95211437Y-3443545D01*
X95285114Y-3415910D01*
X95309972Y-3408977D01*
X95404784Y-3389954D01*
X95509670Y-3378783D01*
X95623051Y-3375357D01*
X95743349Y-3379569D01*
G37*
X95743349Y-3379569D02*
X95868983Y-3391313D01*
X95998376Y-3410482D01*
X96129949Y-3436970D01*
X96262121Y-3470670D01*
X96273815Y-3474002D01*
X96386468Y-3509404D01*
X96489327Y-3548300D01*
X96586582Y-3592297D01*
X96601138Y-3599532D01*
X96664811Y-3633416D01*
X96718532Y-3666506D01*
X96766043Y-3701416D01*
X96811085Y-3740758D01*
X96831122Y-3760182D01*
X96862793Y-3793167D01*
X96886378Y-3821662D01*
X96904984Y-3849768D01*
X96919316Y-3876642D01*
X96931147Y-3901217D01*
X96938987Y-3920283D01*
X96943658Y-3937938D01*
X96945981Y-3958281D01*
X96946775Y-3985411D01*
X96946861Y-4014226D01*
X96946609Y-4050313D01*
X96945404Y-4076246D01*
X96942569Y-4095982D01*
X96937428Y-4113476D01*
X96929306Y-4132683D01*
X96925060Y-4141752D01*
X96908673Y-4170900D01*
X96886829Y-4202771D01*
X96864704Y-4229946D01*
X96826149Y-4272138D01*
X96717969Y-4817733D01*
X96696333Y-4926479D01*
X96677157Y-5022034D01*
X96660293Y-5105077D01*
X96645595Y-5176286D01*
X96632918Y-5236339D01*
X96622114Y-5285914D01*
X96613037Y-5325690D01*
X96605540Y-5356343D01*
X96599477Y-5378553D01*
X96594702Y-5392998D01*
X96592713Y-5397597D01*
X96566758Y-5436303D01*
X96531377Y-5470466D01*
X96491256Y-5495631D01*
X96488006Y-5497112D01*
X96477596Y-5501663D01*
X96467651Y-5505573D01*
X96457339Y-5508717D01*
X96445825Y-5510971D01*
X96432274Y-5512212D01*
X96415852Y-5512316D01*
X96395724Y-5511159D01*
X96371057Y-5508618D01*
X96341016Y-5504568D01*
X96304766Y-5498886D01*
X96261474Y-5491448D01*
X96210305Y-5482130D01*
X96150424Y-5470809D01*
X96080997Y-5457360D01*
X96001190Y-5441660D01*
X95910169Y-5423585D01*
X95807098Y-5403012D01*
X95691145Y-5379816D01*
X95673333Y-5376252D01*
X95539114Y-5349306D01*
X95418657Y-5324938D01*
X95311855Y-5303125D01*
X95218601Y-5283845D01*
X95138787Y-5267074D01*
X95072307Y-5252790D01*
X95019053Y-5240970D01*
X94978917Y-5231591D01*
X94951793Y-5224631D01*
X94937573Y-5220066D01*
X94937047Y-5219831D01*
X94895827Y-5193240D01*
X94861447Y-5156403D01*
X94835789Y-5112286D01*
X94820738Y-5063853D01*
X94817536Y-5031592D01*
X94818826Y-5019586D01*
X94822694Y-4994877D01*
X94828927Y-4958595D01*
X94837315Y-4911869D01*
X94847648Y-4855828D01*
X94849344Y-4846797D01*
X95290210Y-4846797D01*
X95292624Y-4849429D01*
X95301021Y-4852963D01*
X95316208Y-4857580D01*
X95338990Y-4863458D01*
X95370175Y-4870776D01*
X95410570Y-4879716D01*
X95460980Y-4890455D01*
X95522212Y-4903174D01*
X95595074Y-4918052D01*
X95680372Y-4935269D01*
X95754472Y-4950120D01*
X95833509Y-4965920D01*
X95908463Y-4980898D01*
X95978190Y-4994825D01*
X96041544Y-5007474D01*
X96097381Y-5018614D01*
X96144556Y-5028019D01*
X96181925Y-5035460D01*
X96208343Y-5040709D01*
X96222666Y-5043537D01*
X96224955Y-5043975D01*
X96230679Y-5038914D01*
X96233403Y-5032375D01*
X96235357Y-5023540D01*
X96239827Y-5002011D01*
X96246580Y-4968936D01*
X96255387Y-4925463D01*
X96266016Y-4872739D01*
X96278236Y-4811911D01*
X96291816Y-4744128D01*
X96306525Y-4670536D01*
X96322132Y-4592284D01*
X96333074Y-4537328D01*
X96349279Y-4456321D01*
X96364913Y-4379021D01*
X96379729Y-4306600D01*
X96393478Y-4240228D01*
X96405913Y-4181078D01*
X96416786Y-4130321D01*
X96425851Y-4089127D01*
X96432858Y-4058668D01*
X96437561Y-4040115D01*
X96439278Y-4034970D01*
X96446395Y-4020118D01*
X96449442Y-4011596D01*
X96449444Y-4011522D01*
X96443310Y-4005979D01*
X96426544Y-3996319D01*
X96401602Y-3983703D01*
X96370940Y-3969291D01*
X96337014Y-3954243D01*
X96302279Y-3939720D01*
X96274418Y-3928829D01*
X96154437Y-3889187D01*
X96026038Y-3856761D01*
X95893340Y-3832293D01*
X95760463Y-3816522D01*
X95631525Y-3810187D01*
X95613404Y-3810096D01*
X95566588Y-3810257D01*
X95532076Y-3810919D01*
X95508061Y-3812498D01*
X95492736Y-3815406D01*
X95484293Y-3820061D01*
X95480926Y-3826875D01*
X95480827Y-3836264D01*
X95481252Y-3840425D01*
X95480332Y-3850974D01*
X95476852Y-3874186D01*
X95471028Y-3908887D01*
X95463075Y-3953905D01*
X95453209Y-4008066D01*
X95441644Y-4070197D01*
X95428598Y-4139125D01*
X95414284Y-4213678D01*
X95398918Y-4292682D01*
X95387702Y-4349750D01*
X95371716Y-4430789D01*
X95356522Y-4507893D01*
X95342344Y-4579926D01*
X95329404Y-4645752D01*
X95317925Y-4704235D01*
X95308131Y-4754238D01*
X95300243Y-4794627D01*
X95294485Y-4824264D01*
X95291080Y-4842013D01*
X95290210Y-4846797D01*
X94849344Y-4846797D01*
X94859713Y-4791602D01*
X94873301Y-4720322D01*
X94888201Y-4643116D01*
X94904202Y-4561115D01*
X94921092Y-4475448D01*
X94925150Y-4454994D01*
X95033186Y-3911128D01*
X95014526Y-3864484D01*
X94995718Y-3800547D01*
X94990444Y-3738106D01*
X94998140Y-3678030D01*
X95018242Y-3621189D01*
X95050186Y-3568450D01*
X95093409Y-3520684D01*
X95147347Y-3478759D01*
X95211437Y-3443545D01*
X95285114Y-3415910D01*
X95309972Y-3408977D01*
X95404784Y-3389954D01*
X95509670Y-3378783D01*
X95623051Y-3375357D01*
X95743349Y-3379569D01*
D11*
X93345000Y-70485000D03*
X95885000Y-70485000D03*
X93345000Y-73025000D03*
X95885000Y-73025000D03*
X93345000Y-75565000D03*
X95885000Y-75565000D03*
X93345000Y-78105000D03*
X95885000Y-78105000D03*
X93345000Y-80645000D03*
X95885000Y-80645000D03*
X93345000Y-83185000D03*
X95885000Y-83185000D03*
X93345000Y-85725000D03*
X95885000Y-85725000D03*
X93345000Y-88265000D03*
X95885000Y-88265000D03*
X83185000Y-12065000D03*
X85725000Y-12065000D03*
X88265000Y-12065000D03*
X90805000Y-12065000D03*
X93345000Y-12065000D03*
X95885000Y-12065000D03*
X95885000Y-14605000D03*
X93345000Y-14605000D03*
X90805000Y-14605000D03*
X88265000Y-14605000D03*
X85725000Y-14605000D03*
X83185000Y-14605000D03*
X95885000Y-24765000D03*
X93345000Y-24765000D03*
X90805000Y-24765000D03*
X88265000Y-24765000D03*
X85725000Y-24765000D03*
X83185000Y-24765000D03*
X83185000Y-22225000D03*
X85725000Y-22225000D03*
X88265000Y-22225000D03*
X90805000Y-22225000D03*
X93345000Y-22225000D03*
X95885000Y-22225000D03*
X95885000Y-17145000D03*
X93345000Y-17145000D03*
X90805000Y-17145000D03*
X88265000Y-17145000D03*
X85725000Y-17145000D03*
X83185000Y-17145000D03*
X83185000Y-19685000D03*
X85725000Y-19685000D03*
X88265000Y-19685000D03*
X90805000Y-19685000D03*
X93345000Y-19685000D03*
X95885000Y-19685000D03*
X83185000Y-34925000D03*
X85725000Y-34925000D03*
X88265000Y-34925000D03*
X90805000Y-34925000D03*
X93345000Y-34925000D03*
X95885000Y-34925000D03*
X95885000Y-29845000D03*
X93345000Y-29845000D03*
X90805000Y-29845000D03*
X88265000Y-29845000D03*
X85725000Y-29845000D03*
X83185000Y-29845000D03*
X95885000Y-32385000D03*
X93345000Y-32385000D03*
X90805000Y-32385000D03*
X88265000Y-32385000D03*
X85725000Y-32385000D03*
X83185000Y-32385000D03*
X83185000Y-27305000D03*
X85725000Y-27305000D03*
X88265000Y-27305000D03*
X90805000Y-27305000D03*
X93345000Y-27305000D03*
X95885000Y-27305000D03*
X83185000Y-42545000D03*
X85725000Y-42545000D03*
X88265000Y-42545000D03*
X90805000Y-42545000D03*
X93345000Y-42545000D03*
X95885000Y-42545000D03*
X95885000Y-45085000D03*
X93345000Y-45085000D03*
X90805000Y-45085000D03*
X88265000Y-45085000D03*
X85725000Y-45085000D03*
X83185000Y-45085000D03*
X83185000Y-40005000D03*
X85725000Y-40005000D03*
X88265000Y-40005000D03*
X90805000Y-40005000D03*
X93345000Y-40005000D03*
X95885000Y-40005000D03*
X95885000Y-37465000D03*
X93345000Y-37465000D03*
X90805000Y-37465000D03*
X88265000Y-37465000D03*
X85725000Y-37465000D03*
X83185000Y-37465000D03*
X83185000Y-47625000D03*
X85725000Y-47625000D03*
X88265000Y-47625000D03*
X90805000Y-47625000D03*
X93345000Y-47625000D03*
X95885000Y-47625000D03*
X95885000Y-50165000D03*
X93345000Y-50165000D03*
X90805000Y-50165000D03*
X88265000Y-50165000D03*
X85725000Y-50165000D03*
X83185000Y-50165000D03*
X83185000Y-55245000D03*
X85725000Y-55245000D03*
X88265000Y-55245000D03*
X90805000Y-55245000D03*
X93345000Y-55245000D03*
X95885000Y-55245000D03*
X95885000Y-52705000D03*
X93345000Y-52705000D03*
X90805000Y-52705000D03*
X88265000Y-52705000D03*
X85725000Y-52705000D03*
X83185000Y-52705000D03*
X83185000Y-60325000D03*
X85725000Y-60325000D03*
X88265000Y-60325000D03*
X90805000Y-60325000D03*
X93345000Y-60325000D03*
X95885000Y-60325000D03*
X95885000Y-57785000D03*
X93345000Y-57785000D03*
X90805000Y-57785000D03*
X88265000Y-57785000D03*
X85725000Y-57785000D03*
X83185000Y-57785000D03*
X83185000Y-62865000D03*
X85725000Y-62865000D03*
X88265000Y-62865000D03*
X90805000Y-62865000D03*
X93345000Y-62865000D03*
X95885000Y-62865000D03*
X1905000Y-12065000D03*
X4445000Y-12065000D03*
X6985000Y-12065000D03*
X9525000Y-12065000D03*
X12065000Y-12065000D03*
X14605000Y-12065000D03*
X17145000Y-12065000D03*
X19685000Y-12065000D03*
X22225000Y-12065000D03*
X24765000Y-12065000D03*
X27305000Y-12065000D03*
X29845000Y-12065000D03*
X32385000Y-12065000D03*
X34925000Y-12065000D03*
X37465000Y-12065000D03*
X40005000Y-12065000D03*
X42545000Y-12065000D03*
X45085000Y-12065000D03*
X47625000Y-12065000D03*
X50165000Y-12065000D03*
X52705000Y-12065000D03*
X55245000Y-12065000D03*
X57785000Y-12065000D03*
X60325000Y-12065000D03*
X62865000Y-12065000D03*
X65405000Y-12065000D03*
X67945000Y-12065000D03*
X70485000Y-12065000D03*
X73025000Y-12065000D03*
X75565000Y-12065000D03*
X78105000Y-12065000D03*
X78105000Y-88265000D03*
X75565000Y-88265000D03*
X73025000Y-88265000D03*
X70485000Y-88265000D03*
X67945000Y-88265000D03*
X65405000Y-88265000D03*
X62865000Y-88265000D03*
X60325000Y-88265000D03*
X57785000Y-88265000D03*
X55245000Y-88265000D03*
X52705000Y-88265000D03*
X50165000Y-88265000D03*
X47625000Y-88265000D03*
X45085000Y-88265000D03*
X42545000Y-88265000D03*
X40005000Y-88265000D03*
X37465000Y-88265000D03*
X34925000Y-88265000D03*
X32385000Y-88265000D03*
X29845000Y-88265000D03*
X27305000Y-88265000D03*
X24765000Y-88265000D03*
X22225000Y-88265000D03*
X19685000Y-88265000D03*
X17145000Y-88265000D03*
X14605000Y-88265000D03*
X12065000Y-88265000D03*
X9525000Y-88265000D03*
X6985000Y-88265000D03*
X4445000Y-88265000D03*
X1905000Y-88265000D03*
X1905000Y-85725000D03*
X4445000Y-85725000D03*
X6985000Y-85725000D03*
X9525000Y-85725000D03*
X12065000Y-85725000D03*
X14605000Y-85725000D03*
X17145000Y-85725000D03*
X19685000Y-85725000D03*
X22225000Y-85725000D03*
X24765000Y-85725000D03*
X27305000Y-85725000D03*
X29845000Y-85725000D03*
X32385000Y-85725000D03*
X34925000Y-85725000D03*
X37465000Y-85725000D03*
X40005000Y-85725000D03*
X42545000Y-85725000D03*
X45085000Y-85725000D03*
X47625000Y-85725000D03*
X50165000Y-85725000D03*
X52705000Y-85725000D03*
X55245000Y-85725000D03*
X57785000Y-85725000D03*
X60325000Y-85725000D03*
X62865000Y-85725000D03*
X65405000Y-85725000D03*
X67945000Y-85725000D03*
X70485000Y-85725000D03*
X73025000Y-85725000D03*
X75565000Y-85725000D03*
X78105000Y-85725000D03*
X78105000Y-83185000D03*
X75565000Y-83185000D03*
X73025000Y-83185000D03*
X70485000Y-83185000D03*
X67945000Y-83185000D03*
X65405000Y-83185000D03*
X62865000Y-83185000D03*
X60325000Y-83185000D03*
X57785000Y-83185000D03*
X55245000Y-83185000D03*
X52705000Y-83185000D03*
X50165000Y-83185000D03*
X47625000Y-83185000D03*
X45085000Y-83185000D03*
X42545000Y-83185000D03*
X40005000Y-83185000D03*
X37465000Y-83185000D03*
X34925000Y-83185000D03*
X32385000Y-83185000D03*
X29845000Y-83185000D03*
X27305000Y-83185000D03*
X24765000Y-83185000D03*
X22225000Y-83185000D03*
X19685000Y-83185000D03*
X17145000Y-83185000D03*
X14605000Y-83185000D03*
X12065000Y-83185000D03*
X9525000Y-83185000D03*
X6985000Y-83185000D03*
X4445000Y-83185000D03*
X1905000Y-83185000D03*
X78105000Y-80645000D03*
X75565000Y-80645000D03*
X73025000Y-80645000D03*
X70485000Y-80645000D03*
X67945000Y-80645000D03*
X65405000Y-80645000D03*
X62865000Y-80645000D03*
X60325000Y-80645000D03*
X57785000Y-80645000D03*
X55245000Y-80645000D03*
X52705000Y-80645000D03*
X50165000Y-80645000D03*
X47625000Y-80645000D03*
X45085000Y-80645000D03*
X42545000Y-80645000D03*
X40005000Y-80645000D03*
X37465000Y-80645000D03*
X34925000Y-80645000D03*
X32385000Y-80645000D03*
X29845000Y-80645000D03*
X27305000Y-80645000D03*
X24765000Y-80645000D03*
X22225000Y-80645000D03*
X19685000Y-80645000D03*
X17145000Y-80645000D03*
X14605000Y-80645000D03*
X12065000Y-80645000D03*
X9525000Y-80645000D03*
X6985000Y-80645000D03*
X4445000Y-80645000D03*
X1905000Y-80645000D03*
X1905000Y-75565000D03*
X4445000Y-75565000D03*
X6985000Y-75565000D03*
X9525000Y-75565000D03*
X12065000Y-75565000D03*
X14605000Y-75565000D03*
X17145000Y-75565000D03*
X19685000Y-75565000D03*
X22225000Y-75565000D03*
X24765000Y-75565000D03*
X27305000Y-75565000D03*
X29845000Y-75565000D03*
X32385000Y-75565000D03*
X34925000Y-75565000D03*
X37465000Y-75565000D03*
X40005000Y-75565000D03*
X42545000Y-75565000D03*
X45085000Y-75565000D03*
X47625000Y-75565000D03*
X50165000Y-75565000D03*
X52705000Y-75565000D03*
X55245000Y-75565000D03*
X57785000Y-75565000D03*
X60325000Y-75565000D03*
X62865000Y-75565000D03*
X65405000Y-75565000D03*
X67945000Y-75565000D03*
X70485000Y-75565000D03*
X73025000Y-75565000D03*
X75565000Y-75565000D03*
X78105000Y-75565000D03*
X1905000Y-73025000D03*
X4445000Y-73025000D03*
X6985000Y-73025000D03*
X9525000Y-73025000D03*
X12065000Y-73025000D03*
X14605000Y-73025000D03*
X17145000Y-73025000D03*
X19685000Y-73025000D03*
X22225000Y-73025000D03*
X24765000Y-73025000D03*
X27305000Y-73025000D03*
X29845000Y-73025000D03*
X32385000Y-73025000D03*
X34925000Y-73025000D03*
X37465000Y-73025000D03*
X40005000Y-73025000D03*
X42545000Y-73025000D03*
X45085000Y-73025000D03*
X47625000Y-73025000D03*
X50165000Y-73025000D03*
X52705000Y-73025000D03*
X55245000Y-73025000D03*
X57785000Y-73025000D03*
X60325000Y-73025000D03*
X62865000Y-73025000D03*
X65405000Y-73025000D03*
X67945000Y-73025000D03*
X70485000Y-73025000D03*
X73025000Y-73025000D03*
X75565000Y-73025000D03*
X78105000Y-73025000D03*
X78105000Y-78105000D03*
X75565000Y-78105000D03*
X73025000Y-78105000D03*
X70485000Y-78105000D03*
X67945000Y-78105000D03*
X65405000Y-78105000D03*
X62865000Y-78105000D03*
X60325000Y-78105000D03*
X57785000Y-78105000D03*
X55245000Y-78105000D03*
X52705000Y-78105000D03*
X50165000Y-78105000D03*
X47625000Y-78105000D03*
X45085000Y-78105000D03*
X42545000Y-78105000D03*
X40005000Y-78105000D03*
X37465000Y-78105000D03*
X34925000Y-78105000D03*
X32385000Y-78105000D03*
X29845000Y-78105000D03*
X27305000Y-78105000D03*
X24765000Y-78105000D03*
X22225000Y-78105000D03*
X19685000Y-78105000D03*
X17145000Y-78105000D03*
X14605000Y-78105000D03*
X12065000Y-78105000D03*
X9525000Y-78105000D03*
X6985000Y-78105000D03*
X4445000Y-78105000D03*
X1905000Y-78105000D03*
X78105000Y-55245000D03*
X75565000Y-55245000D03*
X73025000Y-55245000D03*
X70485000Y-55245000D03*
X67945000Y-55245000D03*
X65405000Y-55245000D03*
X62865000Y-55245000D03*
X60325000Y-55245000D03*
X57785000Y-55245000D03*
X55245000Y-55245000D03*
X52705000Y-55245000D03*
X50165000Y-55245000D03*
X47625000Y-55245000D03*
X45085000Y-55245000D03*
X42545000Y-55245000D03*
X40005000Y-55245000D03*
X37465000Y-55245000D03*
X34925000Y-55245000D03*
X32385000Y-55245000D03*
X29845000Y-55245000D03*
X27305000Y-55245000D03*
X24765000Y-55245000D03*
X22225000Y-55245000D03*
X19685000Y-55245000D03*
X17145000Y-55245000D03*
X14605000Y-55245000D03*
X12065000Y-55245000D03*
X9525000Y-55245000D03*
X6985000Y-55245000D03*
X4445000Y-55245000D03*
X1905000Y-55245000D03*
X1905000Y-62865000D03*
X4445000Y-62865000D03*
X6985000Y-62865000D03*
X9525000Y-62865000D03*
X12065000Y-62865000D03*
X14605000Y-62865000D03*
X17145000Y-62865000D03*
X19685000Y-62865000D03*
X22225000Y-62865000D03*
X24765000Y-62865000D03*
X27305000Y-62865000D03*
X29845000Y-62865000D03*
X32385000Y-62865000D03*
X34925000Y-62865000D03*
X37465000Y-62865000D03*
X40005000Y-62865000D03*
X42545000Y-62865000D03*
X45085000Y-62865000D03*
X47625000Y-62865000D03*
X50165000Y-62865000D03*
X52705000Y-62865000D03*
X55245000Y-62865000D03*
X57785000Y-62865000D03*
X60325000Y-62865000D03*
X62865000Y-62865000D03*
X65405000Y-62865000D03*
X67945000Y-62865000D03*
X70485000Y-62865000D03*
X73025000Y-62865000D03*
X75565000Y-62865000D03*
X78105000Y-62865000D03*
X78105000Y-70485000D03*
X75565000Y-70485000D03*
X73025000Y-70485000D03*
X70485000Y-70485000D03*
X67945000Y-70485000D03*
X65405000Y-70485000D03*
X62865000Y-70485000D03*
X60325000Y-70485000D03*
X57785000Y-70485000D03*
X55245000Y-70485000D03*
X52705000Y-70485000D03*
X50165000Y-70485000D03*
X47625000Y-70485000D03*
X45085000Y-70485000D03*
X42545000Y-70485000D03*
X40005000Y-70485000D03*
X37465000Y-70485000D03*
X34925000Y-70485000D03*
X32385000Y-70485000D03*
X29845000Y-70485000D03*
X27305000Y-70485000D03*
X24765000Y-70485000D03*
X22225000Y-70485000D03*
X19685000Y-70485000D03*
X17145000Y-70485000D03*
X14605000Y-70485000D03*
X12065000Y-70485000D03*
X9525000Y-70485000D03*
X6985000Y-70485000D03*
X4445000Y-70485000D03*
X1905000Y-70485000D03*
X1905000Y-60325000D03*
X4445000Y-60325000D03*
X6985000Y-60325000D03*
X9525000Y-60325000D03*
X12065000Y-60325000D03*
X14605000Y-60325000D03*
X17145000Y-60325000D03*
X19685000Y-60325000D03*
X22225000Y-60325000D03*
X24765000Y-60325000D03*
X27305000Y-60325000D03*
X29845000Y-60325000D03*
X32385000Y-60325000D03*
X34925000Y-60325000D03*
X37465000Y-60325000D03*
X40005000Y-60325000D03*
X42545000Y-60325000D03*
X45085000Y-60325000D03*
X47625000Y-60325000D03*
X50165000Y-60325000D03*
X52705000Y-60325000D03*
X55245000Y-60325000D03*
X57785000Y-60325000D03*
X60325000Y-60325000D03*
X62865000Y-60325000D03*
X65405000Y-60325000D03*
X67945000Y-60325000D03*
X70485000Y-60325000D03*
X73025000Y-60325000D03*
X75565000Y-60325000D03*
X78105000Y-60325000D03*
X78105000Y-52705000D03*
X75565000Y-52705000D03*
X73025000Y-52705000D03*
X70485000Y-52705000D03*
X67945000Y-52705000D03*
X65405000Y-52705000D03*
X62865000Y-52705000D03*
X60325000Y-52705000D03*
X57785000Y-52705000D03*
X55245000Y-52705000D03*
X52705000Y-52705000D03*
X50165000Y-52705000D03*
X47625000Y-52705000D03*
X45085000Y-52705000D03*
X42545000Y-52705000D03*
X40005000Y-52705000D03*
X37465000Y-52705000D03*
X34925000Y-52705000D03*
X32385000Y-52705000D03*
X29845000Y-52705000D03*
X27305000Y-52705000D03*
X24765000Y-52705000D03*
X22225000Y-52705000D03*
X19685000Y-52705000D03*
X17145000Y-52705000D03*
X14605000Y-52705000D03*
X12065000Y-52705000D03*
X9525000Y-52705000D03*
X6985000Y-52705000D03*
X4445000Y-52705000D03*
X1905000Y-52705000D03*
X1905000Y-57785000D03*
X4445000Y-57785000D03*
X6985000Y-57785000D03*
X9525000Y-57785000D03*
X12065000Y-57785000D03*
X14605000Y-57785000D03*
X17145000Y-57785000D03*
X19685000Y-57785000D03*
X22225000Y-57785000D03*
X24765000Y-57785000D03*
X27305000Y-57785000D03*
X29845000Y-57785000D03*
X32385000Y-57785000D03*
X34925000Y-57785000D03*
X37465000Y-57785000D03*
X40005000Y-57785000D03*
X42545000Y-57785000D03*
X45085000Y-57785000D03*
X47625000Y-57785000D03*
X50165000Y-57785000D03*
X52705000Y-57785000D03*
X55245000Y-57785000D03*
X57785000Y-57785000D03*
X60325000Y-57785000D03*
X62865000Y-57785000D03*
X65405000Y-57785000D03*
X67945000Y-57785000D03*
X70485000Y-57785000D03*
X73025000Y-57785000D03*
X75565000Y-57785000D03*
X78105000Y-57785000D03*
X78105000Y-67945000D03*
X75565000Y-67945000D03*
X73025000Y-67945000D03*
X70485000Y-67945000D03*
X67945000Y-67945000D03*
X65405000Y-67945000D03*
X62865000Y-67945000D03*
X60325000Y-67945000D03*
X57785000Y-67945000D03*
X55245000Y-67945000D03*
X52705000Y-67945000D03*
X50165000Y-67945000D03*
X47625000Y-67945000D03*
X45085000Y-67945000D03*
X42545000Y-67945000D03*
X40005000Y-67945000D03*
X37465000Y-67945000D03*
X34925000Y-67945000D03*
X32385000Y-67945000D03*
X29845000Y-67945000D03*
X27305000Y-67945000D03*
X24765000Y-67945000D03*
X22225000Y-67945000D03*
X19685000Y-67945000D03*
X17145000Y-67945000D03*
X14605000Y-67945000D03*
X12065000Y-67945000D03*
X9525000Y-67945000D03*
X6985000Y-67945000D03*
X4445000Y-67945000D03*
X1905000Y-67945000D03*
X1905000Y-65405000D03*
X4445000Y-65405000D03*
X6985000Y-65405000D03*
X9525000Y-65405000D03*
X12065000Y-65405000D03*
X14605000Y-65405000D03*
X17145000Y-65405000D03*
X19685000Y-65405000D03*
X22225000Y-65405000D03*
X24765000Y-65405000D03*
X27305000Y-65405000D03*
X29845000Y-65405000D03*
X32385000Y-65405000D03*
X34925000Y-65405000D03*
X37465000Y-65405000D03*
X40005000Y-65405000D03*
X42545000Y-65405000D03*
X45085000Y-65405000D03*
X47625000Y-65405000D03*
X50165000Y-65405000D03*
X52705000Y-65405000D03*
X55245000Y-65405000D03*
X57785000Y-65405000D03*
X60325000Y-65405000D03*
X62865000Y-65405000D03*
X65405000Y-65405000D03*
X67945000Y-65405000D03*
X70485000Y-65405000D03*
X73025000Y-65405000D03*
X75565000Y-65405000D03*
X78105000Y-65405000D03*
X78105000Y-14605000D03*
X75565000Y-14605000D03*
X73025000Y-14605000D03*
X70485000Y-14605000D03*
X67945000Y-14605000D03*
X65405000Y-14605000D03*
X62865000Y-14605000D03*
X60325000Y-14605000D03*
X57785000Y-14605000D03*
X55245000Y-14605000D03*
X52705000Y-14605000D03*
X50165000Y-14605000D03*
X47625000Y-14605000D03*
X45085000Y-14605000D03*
X42545000Y-14605000D03*
X40005000Y-14605000D03*
X37465000Y-14605000D03*
X34925000Y-14605000D03*
X32385000Y-14605000D03*
X29845000Y-14605000D03*
X27305000Y-14605000D03*
X24765000Y-14605000D03*
X22225000Y-14605000D03*
X19685000Y-14605000D03*
X17145000Y-14605000D03*
X14605000Y-14605000D03*
X12065000Y-14605000D03*
X9525000Y-14605000D03*
X6985000Y-14605000D03*
X4445000Y-14605000D03*
X1905000Y-14605000D03*
X78105000Y-19685000D03*
X75565000Y-19685000D03*
X73025000Y-19685000D03*
X70485000Y-19685000D03*
X67945000Y-19685000D03*
X65405000Y-19685000D03*
X62865000Y-19685000D03*
X60325000Y-19685000D03*
X57785000Y-19685000D03*
X55245000Y-19685000D03*
X52705000Y-19685000D03*
X50165000Y-19685000D03*
X47625000Y-19685000D03*
X45085000Y-19685000D03*
X42545000Y-19685000D03*
X40005000Y-19685000D03*
X37465000Y-19685000D03*
X34925000Y-19685000D03*
X32385000Y-19685000D03*
X29845000Y-19685000D03*
X27305000Y-19685000D03*
X24765000Y-19685000D03*
X22225000Y-19685000D03*
X19685000Y-19685000D03*
X17145000Y-19685000D03*
X14605000Y-19685000D03*
X12065000Y-19685000D03*
X9525000Y-19685000D03*
X6985000Y-19685000D03*
X4445000Y-19685000D03*
X1905000Y-19685000D03*
X1905000Y-27305000D03*
X4445000Y-27305000D03*
X6985000Y-27305000D03*
X9525000Y-27305000D03*
X12065000Y-27305000D03*
X14605000Y-27305000D03*
X17145000Y-27305000D03*
X19685000Y-27305000D03*
X22225000Y-27305000D03*
X24765000Y-27305000D03*
X27305000Y-27305000D03*
X29845000Y-27305000D03*
X32385000Y-27305000D03*
X34925000Y-27305000D03*
X37465000Y-27305000D03*
X40005000Y-27305000D03*
X42545000Y-27305000D03*
X45085000Y-27305000D03*
X47625000Y-27305000D03*
X50165000Y-27305000D03*
X52705000Y-27305000D03*
X55245000Y-27305000D03*
X57785000Y-27305000D03*
X60325000Y-27305000D03*
X62865000Y-27305000D03*
X65405000Y-27305000D03*
X67945000Y-27305000D03*
X70485000Y-27305000D03*
X73025000Y-27305000D03*
X75565000Y-27305000D03*
X78105000Y-27305000D03*
X1905000Y-24765000D03*
X4445000Y-24765000D03*
X6985000Y-24765000D03*
X9525000Y-24765000D03*
X12065000Y-24765000D03*
X14605000Y-24765000D03*
X17145000Y-24765000D03*
X19685000Y-24765000D03*
X22225000Y-24765000D03*
X24765000Y-24765000D03*
X27305000Y-24765000D03*
X29845000Y-24765000D03*
X32385000Y-24765000D03*
X34925000Y-24765000D03*
X37465000Y-24765000D03*
X40005000Y-24765000D03*
X42545000Y-24765000D03*
X45085000Y-24765000D03*
X47625000Y-24765000D03*
X50165000Y-24765000D03*
X52705000Y-24765000D03*
X55245000Y-24765000D03*
X57785000Y-24765000D03*
X60325000Y-24765000D03*
X62865000Y-24765000D03*
X65405000Y-24765000D03*
X67945000Y-24765000D03*
X70485000Y-24765000D03*
X73025000Y-24765000D03*
X75565000Y-24765000D03*
X78105000Y-24765000D03*
X78105000Y-17145000D03*
X75565000Y-17145000D03*
X73025000Y-17145000D03*
X70485000Y-17145000D03*
X67945000Y-17145000D03*
X65405000Y-17145000D03*
X62865000Y-17145000D03*
X60325000Y-17145000D03*
X57785000Y-17145000D03*
X55245000Y-17145000D03*
X52705000Y-17145000D03*
X50165000Y-17145000D03*
X47625000Y-17145000D03*
X45085000Y-17145000D03*
X42545000Y-17145000D03*
X40005000Y-17145000D03*
X37465000Y-17145000D03*
X34925000Y-17145000D03*
X32385000Y-17145000D03*
X29845000Y-17145000D03*
X27305000Y-17145000D03*
X24765000Y-17145000D03*
X22225000Y-17145000D03*
X19685000Y-17145000D03*
X17145000Y-17145000D03*
X14605000Y-17145000D03*
X12065000Y-17145000D03*
X9525000Y-17145000D03*
X6985000Y-17145000D03*
X4445000Y-17145000D03*
X1905000Y-17145000D03*
X1905000Y-22225000D03*
X4445000Y-22225000D03*
X6985000Y-22225000D03*
X9525000Y-22225000D03*
X12065000Y-22225000D03*
X14605000Y-22225000D03*
X17145000Y-22225000D03*
X19685000Y-22225000D03*
X22225000Y-22225000D03*
X24765000Y-22225000D03*
X27305000Y-22225000D03*
X29845000Y-22225000D03*
X32385000Y-22225000D03*
X34925000Y-22225000D03*
X37465000Y-22225000D03*
X40005000Y-22225000D03*
X42545000Y-22225000D03*
X45085000Y-22225000D03*
X47625000Y-22225000D03*
X50165000Y-22225000D03*
X52705000Y-22225000D03*
X55245000Y-22225000D03*
X57785000Y-22225000D03*
X60325000Y-22225000D03*
X62865000Y-22225000D03*
X65405000Y-22225000D03*
X67945000Y-22225000D03*
X70485000Y-22225000D03*
X73025000Y-22225000D03*
X75565000Y-22225000D03*
X78105000Y-22225000D03*
X1905000Y-29845000D03*
X4445000Y-29845000D03*
X6985000Y-29845000D03*
X9525000Y-29845000D03*
X12065000Y-29845000D03*
X14605000Y-29845000D03*
X17145000Y-29845000D03*
X19685000Y-29845000D03*
X22225000Y-29845000D03*
X24765000Y-29845000D03*
X27305000Y-29845000D03*
X29845000Y-29845000D03*
X32385000Y-29845000D03*
X34925000Y-29845000D03*
X37465000Y-29845000D03*
X40005000Y-29845000D03*
X42545000Y-29845000D03*
X45085000Y-29845000D03*
X47625000Y-29845000D03*
X50165000Y-29845000D03*
X52705000Y-29845000D03*
X55245000Y-29845000D03*
X57785000Y-29845000D03*
X60325000Y-29845000D03*
X62865000Y-29845000D03*
X65405000Y-29845000D03*
X67945000Y-29845000D03*
X70485000Y-29845000D03*
X73025000Y-29845000D03*
X75565000Y-29845000D03*
X78105000Y-29845000D03*
X78105000Y-37465000D03*
X75565000Y-37465000D03*
X73025000Y-37465000D03*
X70485000Y-37465000D03*
X67945000Y-37465000D03*
X65405000Y-37465000D03*
X62865000Y-37465000D03*
X60325000Y-37465000D03*
X57785000Y-37465000D03*
X55245000Y-37465000D03*
X52705000Y-37465000D03*
X50165000Y-37465000D03*
X47625000Y-37465000D03*
X45085000Y-37465000D03*
X42545000Y-37465000D03*
X40005000Y-37465000D03*
X37465000Y-37465000D03*
X34925000Y-37465000D03*
X32385000Y-37465000D03*
X29845000Y-37465000D03*
X27305000Y-37465000D03*
X24765000Y-37465000D03*
X22225000Y-37465000D03*
X19685000Y-37465000D03*
X17145000Y-37465000D03*
X14605000Y-37465000D03*
X12065000Y-37465000D03*
X9525000Y-37465000D03*
X6985000Y-37465000D03*
X4445000Y-37465000D03*
X1905000Y-37465000D03*
X78105000Y-34925000D03*
X75565000Y-34925000D03*
X73025000Y-34925000D03*
X70485000Y-34925000D03*
X67945000Y-34925000D03*
X65405000Y-34925000D03*
X62865000Y-34925000D03*
X60325000Y-34925000D03*
X57785000Y-34925000D03*
X55245000Y-34925000D03*
X52705000Y-34925000D03*
X50165000Y-34925000D03*
X47625000Y-34925000D03*
X45085000Y-34925000D03*
X42545000Y-34925000D03*
X40005000Y-34925000D03*
X37465000Y-34925000D03*
X34925000Y-34925000D03*
X32385000Y-34925000D03*
X29845000Y-34925000D03*
X27305000Y-34925000D03*
X24765000Y-34925000D03*
X22225000Y-34925000D03*
X19685000Y-34925000D03*
X17145000Y-34925000D03*
X14605000Y-34925000D03*
X12065000Y-34925000D03*
X9525000Y-34925000D03*
X6985000Y-34925000D03*
X4445000Y-34925000D03*
X1905000Y-34925000D03*
X1905000Y-32385000D03*
X4445000Y-32385000D03*
X6985000Y-32385000D03*
X9525000Y-32385000D03*
X12065000Y-32385000D03*
X14605000Y-32385000D03*
X17145000Y-32385000D03*
X19685000Y-32385000D03*
X22225000Y-32385000D03*
X24765000Y-32385000D03*
X27305000Y-32385000D03*
X29845000Y-32385000D03*
X32385000Y-32385000D03*
X34925000Y-32385000D03*
X37465000Y-32385000D03*
X40005000Y-32385000D03*
X42545000Y-32385000D03*
X45085000Y-32385000D03*
X47625000Y-32385000D03*
X50165000Y-32385000D03*
X52705000Y-32385000D03*
X55245000Y-32385000D03*
X57785000Y-32385000D03*
X60325000Y-32385000D03*
X62865000Y-32385000D03*
X65405000Y-32385000D03*
X67945000Y-32385000D03*
X70485000Y-32385000D03*
X73025000Y-32385000D03*
X75565000Y-32385000D03*
X78105000Y-32385000D03*
X78105000Y-42545000D03*
X75565000Y-42545000D03*
X73025000Y-42545000D03*
X70485000Y-42545000D03*
X67945000Y-42545000D03*
X65405000Y-42545000D03*
X62865000Y-42545000D03*
X60325000Y-42545000D03*
X57785000Y-42545000D03*
X55245000Y-42545000D03*
X52705000Y-42545000D03*
X50165000Y-42545000D03*
X47625000Y-42545000D03*
X45085000Y-42545000D03*
X42545000Y-42545000D03*
X40005000Y-42545000D03*
X37465000Y-42545000D03*
X34925000Y-42545000D03*
X32385000Y-42545000D03*
X29845000Y-42545000D03*
X27305000Y-42545000D03*
X24765000Y-42545000D03*
X22225000Y-42545000D03*
X19685000Y-42545000D03*
X17145000Y-42545000D03*
X14605000Y-42545000D03*
X12065000Y-42545000D03*
X9525000Y-42545000D03*
X6985000Y-42545000D03*
X4445000Y-42545000D03*
X1905000Y-42545000D03*
X78105000Y-40005000D03*
X75565000Y-40005000D03*
X73025000Y-40005000D03*
X70485000Y-40005000D03*
X67945000Y-40005000D03*
X65405000Y-40005000D03*
X62865000Y-40005000D03*
X60325000Y-40005000D03*
X57785000Y-40005000D03*
X55245000Y-40005000D03*
X52705000Y-40005000D03*
X50165000Y-40005000D03*
X47625000Y-40005000D03*
X45085000Y-40005000D03*
X42545000Y-40005000D03*
X40005000Y-40005000D03*
X37465000Y-40005000D03*
X34925000Y-40005000D03*
X32385000Y-40005000D03*
X29845000Y-40005000D03*
X27305000Y-40005000D03*
X24765000Y-40005000D03*
X22225000Y-40005000D03*
X19685000Y-40005000D03*
X17145000Y-40005000D03*
X14605000Y-40005000D03*
X12065000Y-40005000D03*
X9525000Y-40005000D03*
X6985000Y-40005000D03*
X4445000Y-40005000D03*
X1905000Y-40005000D03*
X1905000Y-45085000D03*
X4445000Y-45085000D03*
X6985000Y-45085000D03*
X9525000Y-45085000D03*
X12065000Y-45085000D03*
X14605000Y-45085000D03*
X17145000Y-45085000D03*
X19685000Y-45085000D03*
X22225000Y-45085000D03*
X24765000Y-45085000D03*
X27305000Y-45085000D03*
X29845000Y-45085000D03*
X32385000Y-45085000D03*
X34925000Y-45085000D03*
X37465000Y-45085000D03*
X40005000Y-45085000D03*
X42545000Y-45085000D03*
X45085000Y-45085000D03*
X47625000Y-45085000D03*
X50165000Y-45085000D03*
X52705000Y-45085000D03*
X55245000Y-45085000D03*
X57785000Y-45085000D03*
X60325000Y-45085000D03*
X62865000Y-45085000D03*
X65405000Y-45085000D03*
X67945000Y-45085000D03*
X70485000Y-45085000D03*
X73025000Y-45085000D03*
X75565000Y-45085000D03*
X78105000Y-45085000D03*
X1905000Y-47625000D03*
X4445000Y-47625000D03*
X6985000Y-47625000D03*
X9525000Y-47625000D03*
X12065000Y-47625000D03*
X14605000Y-47625000D03*
X17145000Y-47625000D03*
X19685000Y-47625000D03*
X22225000Y-47625000D03*
X24765000Y-47625000D03*
X27305000Y-47625000D03*
X29845000Y-47625000D03*
X32385000Y-47625000D03*
X34925000Y-47625000D03*
X37465000Y-47625000D03*
X40005000Y-47625000D03*
X42545000Y-47625000D03*
X45085000Y-47625000D03*
X47625000Y-47625000D03*
X50165000Y-47625000D03*
X52705000Y-47625000D03*
X55245000Y-47625000D03*
X57785000Y-47625000D03*
X60325000Y-47625000D03*
X62865000Y-47625000D03*
X65405000Y-47625000D03*
X67945000Y-47625000D03*
X70485000Y-47625000D03*
X73025000Y-47625000D03*
X75565000Y-47625000D03*
X78105000Y-47625000D03*
X78105000Y-50165000D03*
X75565000Y-50165000D03*
X73025000Y-50165000D03*
X70485000Y-50165000D03*
X67945000Y-50165000D03*
X65405000Y-50165000D03*
X62865000Y-50165000D03*
X60325000Y-50165000D03*
X57785000Y-50165000D03*
X55245000Y-50165000D03*
X52705000Y-50165000D03*
X50165000Y-50165000D03*
X47625000Y-50165000D03*
X45085000Y-50165000D03*
X42545000Y-50165000D03*
X40005000Y-50165000D03*
X37465000Y-50165000D03*
X34925000Y-50165000D03*
X32385000Y-50165000D03*
X29845000Y-50165000D03*
X27305000Y-50165000D03*
X24765000Y-50165000D03*
X22225000Y-50165000D03*
X19685000Y-50165000D03*
X17145000Y-50165000D03*
X14605000Y-50165000D03*
X12065000Y-50165000D03*
X9525000Y-50165000D03*
X6985000Y-50165000D03*
X4445000Y-50165000D03*
X1905000Y-50165000D03*
M02*
