G04 #@! TF.GenerationSoftware,KiCad,Pcbnew,5.1.7-a382d34a8~88~ubuntu16.04.1*
G04 #@! TF.CreationDate,2021-03-11T21:24:15+01:00*
G04 #@! TF.ProjectId,3u-100-eurocard-eurorack-protoboard,33752d31-3030-42d6-9575-726f63617264,rev?*
G04 #@! TF.SameCoordinates,Original*
G04 #@! TF.FileFunction,Copper,L2,Bot*
G04 #@! TF.FilePolarity,Positive*
%FSLAX46Y46*%
G04 Gerber Fmt 4.6, Leading zero omitted, Abs format (unit mm)*
G04 Created by KiCad (PCBNEW 5.1.7-a382d34a8~88~ubuntu16.04.1) date 2021-03-11 21:24:15*
%MOMM*%
%LPD*%
G01*
G04 APERTURE LIST*
G04 #@! TA.AperFunction,SMDPad,CuDef*
%ADD10O,6.080000X2.000000*%
G04 #@! TD*
G04 #@! TA.AperFunction,ComponentPad*
%ADD11O,2.000000X2.000000*%
G04 #@! TD*
G04 #@! TA.AperFunction,ViaPad*
%ADD12C,3.600000*%
G04 #@! TD*
G04 #@! TA.AperFunction,Conductor*
%ADD13C,2.000000*%
G04 #@! TD*
G04 APERTURE END LIST*
D10*
X93845000Y-73025000D03*
X93845000Y-88265000D03*
X93845000Y-85725000D03*
X93845000Y-70485000D03*
X93845000Y-83185000D03*
D11*
X93345000Y-70485000D03*
X95885000Y-70485000D03*
X93345000Y-73025000D03*
X95885000Y-73025000D03*
X93345000Y-75565000D03*
X95885000Y-75565000D03*
X93345000Y-78105000D03*
X95885000Y-78105000D03*
X93345000Y-80645000D03*
X95885000Y-80645000D03*
X93345000Y-83185000D03*
X95885000Y-83185000D03*
X93345000Y-85725000D03*
X95885000Y-85725000D03*
X93345000Y-88265000D03*
X95885000Y-88265000D03*
D10*
X93845000Y-80645000D03*
X93845000Y-78105000D03*
X93845000Y-75565000D03*
D11*
X83185000Y-12065000D03*
X85725000Y-12065000D03*
X88265000Y-12065000D03*
X90805000Y-12065000D03*
X93345000Y-12065000D03*
X95885000Y-12065000D03*
X95885000Y-14605000D03*
X93345000Y-14605000D03*
X90805000Y-14605000D03*
X88265000Y-14605000D03*
X85725000Y-14605000D03*
X83185000Y-14605000D03*
X95885000Y-24765000D03*
X93345000Y-24765000D03*
X90805000Y-24765000D03*
X88265000Y-24765000D03*
X85725000Y-24765000D03*
X83185000Y-24765000D03*
X83185000Y-22225000D03*
X85725000Y-22225000D03*
X88265000Y-22225000D03*
X90805000Y-22225000D03*
X93345000Y-22225000D03*
X95885000Y-22225000D03*
X95885000Y-17145000D03*
X93345000Y-17145000D03*
X90805000Y-17145000D03*
X88265000Y-17145000D03*
X85725000Y-17145000D03*
X83185000Y-17145000D03*
X83185000Y-19685000D03*
X85725000Y-19685000D03*
X88265000Y-19685000D03*
X90805000Y-19685000D03*
X93345000Y-19685000D03*
X95885000Y-19685000D03*
X83185000Y-34925000D03*
X85725000Y-34925000D03*
X88265000Y-34925000D03*
X90805000Y-34925000D03*
X93345000Y-34925000D03*
X95885000Y-34925000D03*
X95885000Y-29845000D03*
X93345000Y-29845000D03*
X90805000Y-29845000D03*
X88265000Y-29845000D03*
X85725000Y-29845000D03*
X83185000Y-29845000D03*
X95885000Y-32385000D03*
X93345000Y-32385000D03*
X90805000Y-32385000D03*
X88265000Y-32385000D03*
X85725000Y-32385000D03*
X83185000Y-32385000D03*
X83185000Y-27305000D03*
X85725000Y-27305000D03*
X88265000Y-27305000D03*
X90805000Y-27305000D03*
X93345000Y-27305000D03*
X95885000Y-27305000D03*
X83185000Y-42545000D03*
X85725000Y-42545000D03*
X88265000Y-42545000D03*
X90805000Y-42545000D03*
X93345000Y-42545000D03*
X95885000Y-42545000D03*
X95885000Y-45085000D03*
X93345000Y-45085000D03*
X90805000Y-45085000D03*
X88265000Y-45085000D03*
X85725000Y-45085000D03*
X83185000Y-45085000D03*
X83185000Y-40005000D03*
X85725000Y-40005000D03*
X88265000Y-40005000D03*
X90805000Y-40005000D03*
X93345000Y-40005000D03*
X95885000Y-40005000D03*
X95885000Y-37465000D03*
X93345000Y-37465000D03*
X90805000Y-37465000D03*
X88265000Y-37465000D03*
X85725000Y-37465000D03*
X83185000Y-37465000D03*
X83185000Y-47625000D03*
X85725000Y-47625000D03*
X88265000Y-47625000D03*
X90805000Y-47625000D03*
X93345000Y-47625000D03*
X95885000Y-47625000D03*
X95885000Y-50165000D03*
X93345000Y-50165000D03*
X90805000Y-50165000D03*
X88265000Y-50165000D03*
X85725000Y-50165000D03*
X83185000Y-50165000D03*
X83185000Y-55245000D03*
X85725000Y-55245000D03*
X88265000Y-55245000D03*
X90805000Y-55245000D03*
X93345000Y-55245000D03*
X95885000Y-55245000D03*
X95885000Y-52705000D03*
X93345000Y-52705000D03*
X90805000Y-52705000D03*
X88265000Y-52705000D03*
X85725000Y-52705000D03*
X83185000Y-52705000D03*
X83185000Y-60325000D03*
X85725000Y-60325000D03*
X88265000Y-60325000D03*
X90805000Y-60325000D03*
X93345000Y-60325000D03*
X95885000Y-60325000D03*
X95885000Y-57785000D03*
X93345000Y-57785000D03*
X90805000Y-57785000D03*
X88265000Y-57785000D03*
X85725000Y-57785000D03*
X83185000Y-57785000D03*
X83185000Y-62865000D03*
X85725000Y-62865000D03*
X88265000Y-62865000D03*
X90805000Y-62865000D03*
X93345000Y-62865000D03*
X95885000Y-62865000D03*
X1905000Y-12065000D03*
X4445000Y-12065000D03*
X6985000Y-12065000D03*
X9525000Y-12065000D03*
X12065000Y-12065000D03*
X14605000Y-12065000D03*
X17145000Y-12065000D03*
X19685000Y-12065000D03*
X22225000Y-12065000D03*
X24765000Y-12065000D03*
X27305000Y-12065000D03*
X29845000Y-12065000D03*
X32385000Y-12065000D03*
X34925000Y-12065000D03*
X37465000Y-12065000D03*
X40005000Y-12065000D03*
X42545000Y-12065000D03*
X45085000Y-12065000D03*
X47625000Y-12065000D03*
X50165000Y-12065000D03*
X52705000Y-12065000D03*
X55245000Y-12065000D03*
X57785000Y-12065000D03*
X60325000Y-12065000D03*
X62865000Y-12065000D03*
X65405000Y-12065000D03*
X67945000Y-12065000D03*
X70485000Y-12065000D03*
X73025000Y-12065000D03*
X75565000Y-12065000D03*
X78105000Y-12065000D03*
X78105000Y-88265000D03*
X75565000Y-88265000D03*
X73025000Y-88265000D03*
X70485000Y-88265000D03*
X67945000Y-88265000D03*
X65405000Y-88265000D03*
X62865000Y-88265000D03*
X60325000Y-88265000D03*
X57785000Y-88265000D03*
X55245000Y-88265000D03*
X52705000Y-88265000D03*
X50165000Y-88265000D03*
X47625000Y-88265000D03*
X45085000Y-88265000D03*
X42545000Y-88265000D03*
X40005000Y-88265000D03*
X37465000Y-88265000D03*
X34925000Y-88265000D03*
X32385000Y-88265000D03*
X29845000Y-88265000D03*
X27305000Y-88265000D03*
X24765000Y-88265000D03*
X22225000Y-88265000D03*
X19685000Y-88265000D03*
X17145000Y-88265000D03*
X14605000Y-88265000D03*
X12065000Y-88265000D03*
X9525000Y-88265000D03*
X6985000Y-88265000D03*
X4445000Y-88265000D03*
X1905000Y-88265000D03*
X1905000Y-85725000D03*
X4445000Y-85725000D03*
X6985000Y-85725000D03*
X9525000Y-85725000D03*
X12065000Y-85725000D03*
X14605000Y-85725000D03*
X17145000Y-85725000D03*
X19685000Y-85725000D03*
X22225000Y-85725000D03*
X24765000Y-85725000D03*
X27305000Y-85725000D03*
X29845000Y-85725000D03*
X32385000Y-85725000D03*
X34925000Y-85725000D03*
X37465000Y-85725000D03*
X40005000Y-85725000D03*
X42545000Y-85725000D03*
X45085000Y-85725000D03*
X47625000Y-85725000D03*
X50165000Y-85725000D03*
X52705000Y-85725000D03*
X55245000Y-85725000D03*
X57785000Y-85725000D03*
X60325000Y-85725000D03*
X62865000Y-85725000D03*
X65405000Y-85725000D03*
X67945000Y-85725000D03*
X70485000Y-85725000D03*
X73025000Y-85725000D03*
X75565000Y-85725000D03*
X78105000Y-85725000D03*
X78105000Y-83185000D03*
X75565000Y-83185000D03*
X73025000Y-83185000D03*
X70485000Y-83185000D03*
X67945000Y-83185000D03*
X65405000Y-83185000D03*
X62865000Y-83185000D03*
X60325000Y-83185000D03*
X57785000Y-83185000D03*
X55245000Y-83185000D03*
X52705000Y-83185000D03*
X50165000Y-83185000D03*
X47625000Y-83185000D03*
X45085000Y-83185000D03*
X42545000Y-83185000D03*
X40005000Y-83185000D03*
X37465000Y-83185000D03*
X34925000Y-83185000D03*
X32385000Y-83185000D03*
X29845000Y-83185000D03*
X27305000Y-83185000D03*
X24765000Y-83185000D03*
X22225000Y-83185000D03*
X19685000Y-83185000D03*
X17145000Y-83185000D03*
X14605000Y-83185000D03*
X12065000Y-83185000D03*
X9525000Y-83185000D03*
X6985000Y-83185000D03*
X4445000Y-83185000D03*
X1905000Y-83185000D03*
X78105000Y-80645000D03*
X75565000Y-80645000D03*
X73025000Y-80645000D03*
X70485000Y-80645000D03*
X67945000Y-80645000D03*
X65405000Y-80645000D03*
X62865000Y-80645000D03*
X60325000Y-80645000D03*
X57785000Y-80645000D03*
X55245000Y-80645000D03*
X52705000Y-80645000D03*
X50165000Y-80645000D03*
X47625000Y-80645000D03*
X45085000Y-80645000D03*
X42545000Y-80645000D03*
X40005000Y-80645000D03*
X37465000Y-80645000D03*
X34925000Y-80645000D03*
X32385000Y-80645000D03*
X29845000Y-80645000D03*
X27305000Y-80645000D03*
X24765000Y-80645000D03*
X22225000Y-80645000D03*
X19685000Y-80645000D03*
X17145000Y-80645000D03*
X14605000Y-80645000D03*
X12065000Y-80645000D03*
X9525000Y-80645000D03*
X6985000Y-80645000D03*
X4445000Y-80645000D03*
X1905000Y-80645000D03*
X1905000Y-75565000D03*
X4445000Y-75565000D03*
X6985000Y-75565000D03*
X9525000Y-75565000D03*
X12065000Y-75565000D03*
X14605000Y-75565000D03*
X17145000Y-75565000D03*
X19685000Y-75565000D03*
X22225000Y-75565000D03*
X24765000Y-75565000D03*
X27305000Y-75565000D03*
X29845000Y-75565000D03*
X32385000Y-75565000D03*
X34925000Y-75565000D03*
X37465000Y-75565000D03*
X40005000Y-75565000D03*
X42545000Y-75565000D03*
X45085000Y-75565000D03*
X47625000Y-75565000D03*
X50165000Y-75565000D03*
X52705000Y-75565000D03*
X55245000Y-75565000D03*
X57785000Y-75565000D03*
X60325000Y-75565000D03*
X62865000Y-75565000D03*
X65405000Y-75565000D03*
X67945000Y-75565000D03*
X70485000Y-75565000D03*
X73025000Y-75565000D03*
X75565000Y-75565000D03*
X78105000Y-75565000D03*
X1905000Y-73025000D03*
X4445000Y-73025000D03*
X6985000Y-73025000D03*
X9525000Y-73025000D03*
X12065000Y-73025000D03*
X14605000Y-73025000D03*
X17145000Y-73025000D03*
X19685000Y-73025000D03*
X22225000Y-73025000D03*
X24765000Y-73025000D03*
X27305000Y-73025000D03*
X29845000Y-73025000D03*
X32385000Y-73025000D03*
X34925000Y-73025000D03*
X37465000Y-73025000D03*
X40005000Y-73025000D03*
X42545000Y-73025000D03*
X45085000Y-73025000D03*
X47625000Y-73025000D03*
X50165000Y-73025000D03*
X52705000Y-73025000D03*
X55245000Y-73025000D03*
X57785000Y-73025000D03*
X60325000Y-73025000D03*
X62865000Y-73025000D03*
X65405000Y-73025000D03*
X67945000Y-73025000D03*
X70485000Y-73025000D03*
X73025000Y-73025000D03*
X75565000Y-73025000D03*
X78105000Y-73025000D03*
X78105000Y-78105000D03*
X75565000Y-78105000D03*
X73025000Y-78105000D03*
X70485000Y-78105000D03*
X67945000Y-78105000D03*
X65405000Y-78105000D03*
X62865000Y-78105000D03*
X60325000Y-78105000D03*
X57785000Y-78105000D03*
X55245000Y-78105000D03*
X52705000Y-78105000D03*
X50165000Y-78105000D03*
X47625000Y-78105000D03*
X45085000Y-78105000D03*
X42545000Y-78105000D03*
X40005000Y-78105000D03*
X37465000Y-78105000D03*
X34925000Y-78105000D03*
X32385000Y-78105000D03*
X29845000Y-78105000D03*
X27305000Y-78105000D03*
X24765000Y-78105000D03*
X22225000Y-78105000D03*
X19685000Y-78105000D03*
X17145000Y-78105000D03*
X14605000Y-78105000D03*
X12065000Y-78105000D03*
X9525000Y-78105000D03*
X6985000Y-78105000D03*
X4445000Y-78105000D03*
X1905000Y-78105000D03*
X78105000Y-55245000D03*
X75565000Y-55245000D03*
X73025000Y-55245000D03*
X70485000Y-55245000D03*
X67945000Y-55245000D03*
X65405000Y-55245000D03*
X62865000Y-55245000D03*
X60325000Y-55245000D03*
X57785000Y-55245000D03*
X55245000Y-55245000D03*
X52705000Y-55245000D03*
X50165000Y-55245000D03*
X47625000Y-55245000D03*
X45085000Y-55245000D03*
X42545000Y-55245000D03*
X40005000Y-55245000D03*
X37465000Y-55245000D03*
X34925000Y-55245000D03*
X32385000Y-55245000D03*
X29845000Y-55245000D03*
X27305000Y-55245000D03*
X24765000Y-55245000D03*
X22225000Y-55245000D03*
X19685000Y-55245000D03*
X17145000Y-55245000D03*
X14605000Y-55245000D03*
X12065000Y-55245000D03*
X9525000Y-55245000D03*
X6985000Y-55245000D03*
X4445000Y-55245000D03*
X1905000Y-55245000D03*
X1905000Y-62865000D03*
X4445000Y-62865000D03*
X6985000Y-62865000D03*
X9525000Y-62865000D03*
X12065000Y-62865000D03*
X14605000Y-62865000D03*
X17145000Y-62865000D03*
X19685000Y-62865000D03*
X22225000Y-62865000D03*
X24765000Y-62865000D03*
X27305000Y-62865000D03*
X29845000Y-62865000D03*
X32385000Y-62865000D03*
X34925000Y-62865000D03*
X37465000Y-62865000D03*
X40005000Y-62865000D03*
X42545000Y-62865000D03*
X45085000Y-62865000D03*
X47625000Y-62865000D03*
X50165000Y-62865000D03*
X52705000Y-62865000D03*
X55245000Y-62865000D03*
X57785000Y-62865000D03*
X60325000Y-62865000D03*
X62865000Y-62865000D03*
X65405000Y-62865000D03*
X67945000Y-62865000D03*
X70485000Y-62865000D03*
X73025000Y-62865000D03*
X75565000Y-62865000D03*
X78105000Y-62865000D03*
X78105000Y-70485000D03*
X75565000Y-70485000D03*
X73025000Y-70485000D03*
X70485000Y-70485000D03*
X67945000Y-70485000D03*
X65405000Y-70485000D03*
X62865000Y-70485000D03*
X60325000Y-70485000D03*
X57785000Y-70485000D03*
X55245000Y-70485000D03*
X52705000Y-70485000D03*
X50165000Y-70485000D03*
X47625000Y-70485000D03*
X45085000Y-70485000D03*
X42545000Y-70485000D03*
X40005000Y-70485000D03*
X37465000Y-70485000D03*
X34925000Y-70485000D03*
X32385000Y-70485000D03*
X29845000Y-70485000D03*
X27305000Y-70485000D03*
X24765000Y-70485000D03*
X22225000Y-70485000D03*
X19685000Y-70485000D03*
X17145000Y-70485000D03*
X14605000Y-70485000D03*
X12065000Y-70485000D03*
X9525000Y-70485000D03*
X6985000Y-70485000D03*
X4445000Y-70485000D03*
X1905000Y-70485000D03*
X1905000Y-60325000D03*
X4445000Y-60325000D03*
X6985000Y-60325000D03*
X9525000Y-60325000D03*
X12065000Y-60325000D03*
X14605000Y-60325000D03*
X17145000Y-60325000D03*
X19685000Y-60325000D03*
X22225000Y-60325000D03*
X24765000Y-60325000D03*
X27305000Y-60325000D03*
X29845000Y-60325000D03*
X32385000Y-60325000D03*
X34925000Y-60325000D03*
X37465000Y-60325000D03*
X40005000Y-60325000D03*
X42545000Y-60325000D03*
X45085000Y-60325000D03*
X47625000Y-60325000D03*
X50165000Y-60325000D03*
X52705000Y-60325000D03*
X55245000Y-60325000D03*
X57785000Y-60325000D03*
X60325000Y-60325000D03*
X62865000Y-60325000D03*
X65405000Y-60325000D03*
X67945000Y-60325000D03*
X70485000Y-60325000D03*
X73025000Y-60325000D03*
X75565000Y-60325000D03*
X78105000Y-60325000D03*
X78105000Y-52705000D03*
X75565000Y-52705000D03*
X73025000Y-52705000D03*
X70485000Y-52705000D03*
X67945000Y-52705000D03*
X65405000Y-52705000D03*
X62865000Y-52705000D03*
X60325000Y-52705000D03*
X57785000Y-52705000D03*
X55245000Y-52705000D03*
X52705000Y-52705000D03*
X50165000Y-52705000D03*
X47625000Y-52705000D03*
X45085000Y-52705000D03*
X42545000Y-52705000D03*
X40005000Y-52705000D03*
X37465000Y-52705000D03*
X34925000Y-52705000D03*
X32385000Y-52705000D03*
X29845000Y-52705000D03*
X27305000Y-52705000D03*
X24765000Y-52705000D03*
X22225000Y-52705000D03*
X19685000Y-52705000D03*
X17145000Y-52705000D03*
X14605000Y-52705000D03*
X12065000Y-52705000D03*
X9525000Y-52705000D03*
X6985000Y-52705000D03*
X4445000Y-52705000D03*
X1905000Y-52705000D03*
X1905000Y-57785000D03*
X4445000Y-57785000D03*
X6985000Y-57785000D03*
X9525000Y-57785000D03*
X12065000Y-57785000D03*
X14605000Y-57785000D03*
X17145000Y-57785000D03*
X19685000Y-57785000D03*
X22225000Y-57785000D03*
X24765000Y-57785000D03*
X27305000Y-57785000D03*
X29845000Y-57785000D03*
X32385000Y-57785000D03*
X34925000Y-57785000D03*
X37465000Y-57785000D03*
X40005000Y-57785000D03*
X42545000Y-57785000D03*
X45085000Y-57785000D03*
X47625000Y-57785000D03*
X50165000Y-57785000D03*
X52705000Y-57785000D03*
X55245000Y-57785000D03*
X57785000Y-57785000D03*
X60325000Y-57785000D03*
X62865000Y-57785000D03*
X65405000Y-57785000D03*
X67945000Y-57785000D03*
X70485000Y-57785000D03*
X73025000Y-57785000D03*
X75565000Y-57785000D03*
X78105000Y-57785000D03*
X78105000Y-67945000D03*
X75565000Y-67945000D03*
X73025000Y-67945000D03*
X70485000Y-67945000D03*
X67945000Y-67945000D03*
X65405000Y-67945000D03*
X62865000Y-67945000D03*
X60325000Y-67945000D03*
X57785000Y-67945000D03*
X55245000Y-67945000D03*
X52705000Y-67945000D03*
X50165000Y-67945000D03*
X47625000Y-67945000D03*
X45085000Y-67945000D03*
X42545000Y-67945000D03*
X40005000Y-67945000D03*
X37465000Y-67945000D03*
X34925000Y-67945000D03*
X32385000Y-67945000D03*
X29845000Y-67945000D03*
X27305000Y-67945000D03*
X24765000Y-67945000D03*
X22225000Y-67945000D03*
X19685000Y-67945000D03*
X17145000Y-67945000D03*
X14605000Y-67945000D03*
X12065000Y-67945000D03*
X9525000Y-67945000D03*
X6985000Y-67945000D03*
X4445000Y-67945000D03*
X1905000Y-67945000D03*
X1905000Y-65405000D03*
X4445000Y-65405000D03*
X6985000Y-65405000D03*
X9525000Y-65405000D03*
X12065000Y-65405000D03*
X14605000Y-65405000D03*
X17145000Y-65405000D03*
X19685000Y-65405000D03*
X22225000Y-65405000D03*
X24765000Y-65405000D03*
X27305000Y-65405000D03*
X29845000Y-65405000D03*
X32385000Y-65405000D03*
X34925000Y-65405000D03*
X37465000Y-65405000D03*
X40005000Y-65405000D03*
X42545000Y-65405000D03*
X45085000Y-65405000D03*
X47625000Y-65405000D03*
X50165000Y-65405000D03*
X52705000Y-65405000D03*
X55245000Y-65405000D03*
X57785000Y-65405000D03*
X60325000Y-65405000D03*
X62865000Y-65405000D03*
X65405000Y-65405000D03*
X67945000Y-65405000D03*
X70485000Y-65405000D03*
X73025000Y-65405000D03*
X75565000Y-65405000D03*
X78105000Y-65405000D03*
X78105000Y-14605000D03*
X75565000Y-14605000D03*
X73025000Y-14605000D03*
X70485000Y-14605000D03*
X67945000Y-14605000D03*
X65405000Y-14605000D03*
X62865000Y-14605000D03*
X60325000Y-14605000D03*
X57785000Y-14605000D03*
X55245000Y-14605000D03*
X52705000Y-14605000D03*
X50165000Y-14605000D03*
X47625000Y-14605000D03*
X45085000Y-14605000D03*
X42545000Y-14605000D03*
X40005000Y-14605000D03*
X37465000Y-14605000D03*
X34925000Y-14605000D03*
X32385000Y-14605000D03*
X29845000Y-14605000D03*
X27305000Y-14605000D03*
X24765000Y-14605000D03*
X22225000Y-14605000D03*
X19685000Y-14605000D03*
X17145000Y-14605000D03*
X14605000Y-14605000D03*
X12065000Y-14605000D03*
X9525000Y-14605000D03*
X6985000Y-14605000D03*
X4445000Y-14605000D03*
X1905000Y-14605000D03*
X78105000Y-19685000D03*
X75565000Y-19685000D03*
X73025000Y-19685000D03*
X70485000Y-19685000D03*
X67945000Y-19685000D03*
X65405000Y-19685000D03*
X62865000Y-19685000D03*
X60325000Y-19685000D03*
X57785000Y-19685000D03*
X55245000Y-19685000D03*
X52705000Y-19685000D03*
X50165000Y-19685000D03*
X47625000Y-19685000D03*
X45085000Y-19685000D03*
X42545000Y-19685000D03*
X40005000Y-19685000D03*
X37465000Y-19685000D03*
X34925000Y-19685000D03*
X32385000Y-19685000D03*
X29845000Y-19685000D03*
X27305000Y-19685000D03*
X24765000Y-19685000D03*
X22225000Y-19685000D03*
X19685000Y-19685000D03*
X17145000Y-19685000D03*
X14605000Y-19685000D03*
X12065000Y-19685000D03*
X9525000Y-19685000D03*
X6985000Y-19685000D03*
X4445000Y-19685000D03*
X1905000Y-19685000D03*
X1905000Y-27305000D03*
X4445000Y-27305000D03*
X6985000Y-27305000D03*
X9525000Y-27305000D03*
X12065000Y-27305000D03*
X14605000Y-27305000D03*
X17145000Y-27305000D03*
X19685000Y-27305000D03*
X22225000Y-27305000D03*
X24765000Y-27305000D03*
X27305000Y-27305000D03*
X29845000Y-27305000D03*
X32385000Y-27305000D03*
X34925000Y-27305000D03*
X37465000Y-27305000D03*
X40005000Y-27305000D03*
X42545000Y-27305000D03*
X45085000Y-27305000D03*
X47625000Y-27305000D03*
X50165000Y-27305000D03*
X52705000Y-27305000D03*
X55245000Y-27305000D03*
X57785000Y-27305000D03*
X60325000Y-27305000D03*
X62865000Y-27305000D03*
X65405000Y-27305000D03*
X67945000Y-27305000D03*
X70485000Y-27305000D03*
X73025000Y-27305000D03*
X75565000Y-27305000D03*
X78105000Y-27305000D03*
X1905000Y-24765000D03*
X4445000Y-24765000D03*
X6985000Y-24765000D03*
X9525000Y-24765000D03*
X12065000Y-24765000D03*
X14605000Y-24765000D03*
X17145000Y-24765000D03*
X19685000Y-24765000D03*
X22225000Y-24765000D03*
X24765000Y-24765000D03*
X27305000Y-24765000D03*
X29845000Y-24765000D03*
X32385000Y-24765000D03*
X34925000Y-24765000D03*
X37465000Y-24765000D03*
X40005000Y-24765000D03*
X42545000Y-24765000D03*
X45085000Y-24765000D03*
X47625000Y-24765000D03*
X50165000Y-24765000D03*
X52705000Y-24765000D03*
X55245000Y-24765000D03*
X57785000Y-24765000D03*
X60325000Y-24765000D03*
X62865000Y-24765000D03*
X65405000Y-24765000D03*
X67945000Y-24765000D03*
X70485000Y-24765000D03*
X73025000Y-24765000D03*
X75565000Y-24765000D03*
X78105000Y-24765000D03*
X78105000Y-17145000D03*
X75565000Y-17145000D03*
X73025000Y-17145000D03*
X70485000Y-17145000D03*
X67945000Y-17145000D03*
X65405000Y-17145000D03*
X62865000Y-17145000D03*
X60325000Y-17145000D03*
X57785000Y-17145000D03*
X55245000Y-17145000D03*
X52705000Y-17145000D03*
X50165000Y-17145000D03*
X47625000Y-17145000D03*
X45085000Y-17145000D03*
X42545000Y-17145000D03*
X40005000Y-17145000D03*
X37465000Y-17145000D03*
X34925000Y-17145000D03*
X32385000Y-17145000D03*
X29845000Y-17145000D03*
X27305000Y-17145000D03*
X24765000Y-17145000D03*
X22225000Y-17145000D03*
X19685000Y-17145000D03*
X17145000Y-17145000D03*
X14605000Y-17145000D03*
X12065000Y-17145000D03*
X9525000Y-17145000D03*
X6985000Y-17145000D03*
X4445000Y-17145000D03*
X1905000Y-17145000D03*
X1905000Y-22225000D03*
X4445000Y-22225000D03*
X6985000Y-22225000D03*
X9525000Y-22225000D03*
X12065000Y-22225000D03*
X14605000Y-22225000D03*
X17145000Y-22225000D03*
X19685000Y-22225000D03*
X22225000Y-22225000D03*
X24765000Y-22225000D03*
X27305000Y-22225000D03*
X29845000Y-22225000D03*
X32385000Y-22225000D03*
X34925000Y-22225000D03*
X37465000Y-22225000D03*
X40005000Y-22225000D03*
X42545000Y-22225000D03*
X45085000Y-22225000D03*
X47625000Y-22225000D03*
X50165000Y-22225000D03*
X52705000Y-22225000D03*
X55245000Y-22225000D03*
X57785000Y-22225000D03*
X60325000Y-22225000D03*
X62865000Y-22225000D03*
X65405000Y-22225000D03*
X67945000Y-22225000D03*
X70485000Y-22225000D03*
X73025000Y-22225000D03*
X75565000Y-22225000D03*
X78105000Y-22225000D03*
X1905000Y-29845000D03*
X4445000Y-29845000D03*
X6985000Y-29845000D03*
X9525000Y-29845000D03*
X12065000Y-29845000D03*
X14605000Y-29845000D03*
X17145000Y-29845000D03*
X19685000Y-29845000D03*
X22225000Y-29845000D03*
X24765000Y-29845000D03*
X27305000Y-29845000D03*
X29845000Y-29845000D03*
X32385000Y-29845000D03*
X34925000Y-29845000D03*
X37465000Y-29845000D03*
X40005000Y-29845000D03*
X42545000Y-29845000D03*
X45085000Y-29845000D03*
X47625000Y-29845000D03*
X50165000Y-29845000D03*
X52705000Y-29845000D03*
X55245000Y-29845000D03*
X57785000Y-29845000D03*
X60325000Y-29845000D03*
X62865000Y-29845000D03*
X65405000Y-29845000D03*
X67945000Y-29845000D03*
X70485000Y-29845000D03*
X73025000Y-29845000D03*
X75565000Y-29845000D03*
X78105000Y-29845000D03*
X78105000Y-37465000D03*
X75565000Y-37465000D03*
X73025000Y-37465000D03*
X70485000Y-37465000D03*
X67945000Y-37465000D03*
X65405000Y-37465000D03*
X62865000Y-37465000D03*
X60325000Y-37465000D03*
X57785000Y-37465000D03*
X55245000Y-37465000D03*
X52705000Y-37465000D03*
X50165000Y-37465000D03*
X47625000Y-37465000D03*
X45085000Y-37465000D03*
X42545000Y-37465000D03*
X40005000Y-37465000D03*
X37465000Y-37465000D03*
X34925000Y-37465000D03*
X32385000Y-37465000D03*
X29845000Y-37465000D03*
X27305000Y-37465000D03*
X24765000Y-37465000D03*
X22225000Y-37465000D03*
X19685000Y-37465000D03*
X17145000Y-37465000D03*
X14605000Y-37465000D03*
X12065000Y-37465000D03*
X9525000Y-37465000D03*
X6985000Y-37465000D03*
X4445000Y-37465000D03*
X1905000Y-37465000D03*
X78105000Y-34925000D03*
X75565000Y-34925000D03*
X73025000Y-34925000D03*
X70485000Y-34925000D03*
X67945000Y-34925000D03*
X65405000Y-34925000D03*
X62865000Y-34925000D03*
X60325000Y-34925000D03*
X57785000Y-34925000D03*
X55245000Y-34925000D03*
X52705000Y-34925000D03*
X50165000Y-34925000D03*
X47625000Y-34925000D03*
X45085000Y-34925000D03*
X42545000Y-34925000D03*
X40005000Y-34925000D03*
X37465000Y-34925000D03*
X34925000Y-34925000D03*
X32385000Y-34925000D03*
X29845000Y-34925000D03*
X27305000Y-34925000D03*
X24765000Y-34925000D03*
X22225000Y-34925000D03*
X19685000Y-34925000D03*
X17145000Y-34925000D03*
X14605000Y-34925000D03*
X12065000Y-34925000D03*
X9525000Y-34925000D03*
X6985000Y-34925000D03*
X4445000Y-34925000D03*
X1905000Y-34925000D03*
X1905000Y-32385000D03*
X4445000Y-32385000D03*
X6985000Y-32385000D03*
X9525000Y-32385000D03*
X12065000Y-32385000D03*
X14605000Y-32385000D03*
X17145000Y-32385000D03*
X19685000Y-32385000D03*
X22225000Y-32385000D03*
X24765000Y-32385000D03*
X27305000Y-32385000D03*
X29845000Y-32385000D03*
X32385000Y-32385000D03*
X34925000Y-32385000D03*
X37465000Y-32385000D03*
X40005000Y-32385000D03*
X42545000Y-32385000D03*
X45085000Y-32385000D03*
X47625000Y-32385000D03*
X50165000Y-32385000D03*
X52705000Y-32385000D03*
X55245000Y-32385000D03*
X57785000Y-32385000D03*
X60325000Y-32385000D03*
X62865000Y-32385000D03*
X65405000Y-32385000D03*
X67945000Y-32385000D03*
X70485000Y-32385000D03*
X73025000Y-32385000D03*
X75565000Y-32385000D03*
X78105000Y-32385000D03*
X78105000Y-42545000D03*
X75565000Y-42545000D03*
X73025000Y-42545000D03*
X70485000Y-42545000D03*
X67945000Y-42545000D03*
X65405000Y-42545000D03*
X62865000Y-42545000D03*
X60325000Y-42545000D03*
X57785000Y-42545000D03*
X55245000Y-42545000D03*
X52705000Y-42545000D03*
X50165000Y-42545000D03*
X47625000Y-42545000D03*
X45085000Y-42545000D03*
X42545000Y-42545000D03*
X40005000Y-42545000D03*
X37465000Y-42545000D03*
X34925000Y-42545000D03*
X32385000Y-42545000D03*
X29845000Y-42545000D03*
X27305000Y-42545000D03*
X24765000Y-42545000D03*
X22225000Y-42545000D03*
X19685000Y-42545000D03*
X17145000Y-42545000D03*
X14605000Y-42545000D03*
X12065000Y-42545000D03*
X9525000Y-42545000D03*
X6985000Y-42545000D03*
X4445000Y-42545000D03*
X1905000Y-42545000D03*
X78105000Y-40005000D03*
X75565000Y-40005000D03*
X73025000Y-40005000D03*
X70485000Y-40005000D03*
X67945000Y-40005000D03*
X65405000Y-40005000D03*
X62865000Y-40005000D03*
X60325000Y-40005000D03*
X57785000Y-40005000D03*
X55245000Y-40005000D03*
X52705000Y-40005000D03*
X50165000Y-40005000D03*
X47625000Y-40005000D03*
X45085000Y-40005000D03*
X42545000Y-40005000D03*
X40005000Y-40005000D03*
X37465000Y-40005000D03*
X34925000Y-40005000D03*
X32385000Y-40005000D03*
X29845000Y-40005000D03*
X27305000Y-40005000D03*
X24765000Y-40005000D03*
X22225000Y-40005000D03*
X19685000Y-40005000D03*
X17145000Y-40005000D03*
X14605000Y-40005000D03*
X12065000Y-40005000D03*
X9525000Y-40005000D03*
X6985000Y-40005000D03*
X4445000Y-40005000D03*
X1905000Y-40005000D03*
X1905000Y-45085000D03*
X4445000Y-45085000D03*
X6985000Y-45085000D03*
X9525000Y-45085000D03*
X12065000Y-45085000D03*
X14605000Y-45085000D03*
X17145000Y-45085000D03*
X19685000Y-45085000D03*
X22225000Y-45085000D03*
X24765000Y-45085000D03*
X27305000Y-45085000D03*
X29845000Y-45085000D03*
X32385000Y-45085000D03*
X34925000Y-45085000D03*
X37465000Y-45085000D03*
X40005000Y-45085000D03*
X42545000Y-45085000D03*
X45085000Y-45085000D03*
X47625000Y-45085000D03*
X50165000Y-45085000D03*
X52705000Y-45085000D03*
X55245000Y-45085000D03*
X57785000Y-45085000D03*
X60325000Y-45085000D03*
X62865000Y-45085000D03*
X65405000Y-45085000D03*
X67945000Y-45085000D03*
X70485000Y-45085000D03*
X73025000Y-45085000D03*
X75565000Y-45085000D03*
X78105000Y-45085000D03*
X1905000Y-47625000D03*
X4445000Y-47625000D03*
X6985000Y-47625000D03*
X9525000Y-47625000D03*
X12065000Y-47625000D03*
X14605000Y-47625000D03*
X17145000Y-47625000D03*
X19685000Y-47625000D03*
X22225000Y-47625000D03*
X24765000Y-47625000D03*
X27305000Y-47625000D03*
X29845000Y-47625000D03*
X32385000Y-47625000D03*
X34925000Y-47625000D03*
X37465000Y-47625000D03*
X40005000Y-47625000D03*
X42545000Y-47625000D03*
X45085000Y-47625000D03*
X47625000Y-47625000D03*
X50165000Y-47625000D03*
X52705000Y-47625000D03*
X55245000Y-47625000D03*
X57785000Y-47625000D03*
X60325000Y-47625000D03*
X62865000Y-47625000D03*
X65405000Y-47625000D03*
X67945000Y-47625000D03*
X70485000Y-47625000D03*
X73025000Y-47625000D03*
X75565000Y-47625000D03*
X78105000Y-47625000D03*
X78105000Y-50165000D03*
X75565000Y-50165000D03*
X73025000Y-50165000D03*
X70485000Y-50165000D03*
X67945000Y-50165000D03*
X65405000Y-50165000D03*
X62865000Y-50165000D03*
X60325000Y-50165000D03*
X57785000Y-50165000D03*
X55245000Y-50165000D03*
X52705000Y-50165000D03*
X50165000Y-50165000D03*
X47625000Y-50165000D03*
X45085000Y-50165000D03*
X42545000Y-50165000D03*
X40005000Y-50165000D03*
X37465000Y-50165000D03*
X34925000Y-50165000D03*
X32385000Y-50165000D03*
X29845000Y-50165000D03*
X27305000Y-50165000D03*
X24765000Y-50165000D03*
X22225000Y-50165000D03*
X19685000Y-50165000D03*
X17145000Y-50165000D03*
X14605000Y-50165000D03*
X12065000Y-50165000D03*
X9525000Y-50165000D03*
X6985000Y-50165000D03*
X4445000Y-50165000D03*
X1905000Y-50165000D03*
D12*
X3570000Y-94615000D03*
X3570000Y-5715000D03*
D13*
X75565000Y-88265000D02*
X75565000Y-12065000D01*
X73025000Y-12065000D02*
X73025000Y-88265000D01*
X78105000Y-12065000D02*
X78105000Y-88265000D01*
M02*
