G04 #@! TF.GenerationSoftware,KiCad,Pcbnew,5.1.7-a382d34a8~88~ubuntu16.04.1*
G04 #@! TF.CreationDate,2021-03-11T21:24:15+01:00*
G04 #@! TF.ProjectId,3u-100-eurocard-eurorack-protoboard,33752d31-3030-42d6-9575-726f63617264,rev?*
G04 #@! TF.SameCoordinates,Original*
G04 #@! TF.FileFunction,Legend,Top*
G04 #@! TF.FilePolarity,Positive*
%FSLAX46Y46*%
G04 Gerber Fmt 4.6, Leading zero omitted, Abs format (unit mm)*
G04 Created by KiCad (PCBNEW 5.1.7-a382d34a8~88~ubuntu16.04.1) date 2021-03-11 21:24:15*
%MOMM*%
%LPD*%
G01*
G04 APERTURE LIST*
%ADD10C,0.100000*%
%ADD11C,0.125000*%
%ADD12C,2.000000*%
G04 APERTURE END LIST*
D10*
G36*
X79375000Y-97155000D02*
G01*
X8255000Y-97155000D01*
X8255000Y-92075000D01*
X79375000Y-92075000D01*
X79375000Y-97155000D01*
G37*
X79375000Y-97155000D02*
X8255000Y-97155000D01*
X8255000Y-92075000D01*
X79375000Y-92075000D01*
X79375000Y-97155000D01*
G36*
X79375000Y-8255000D02*
G01*
X8255000Y-8255000D01*
X8255000Y-3175000D01*
X79375000Y-3175000D01*
X79375000Y-8255000D01*
G37*
X79375000Y-8255000D02*
X8255000Y-8255000D01*
X8255000Y-3175000D01*
X79375000Y-3175000D01*
X79375000Y-8255000D01*
G36*
X97155000Y-91440000D02*
G01*
X92075000Y-91440000D01*
X92075000Y-90170000D01*
X97155000Y-90170000D01*
X97155000Y-91440000D01*
G37*
X97155000Y-91440000D02*
X92075000Y-91440000D01*
X92075000Y-90170000D01*
X97155000Y-90170000D01*
X97155000Y-91440000D01*
D11*
X38862000Y-49022000D02*
X39116000Y-49276000D01*
X38862000Y-51308000D02*
X39116000Y-51054000D01*
X41148000Y-49022000D02*
X40894000Y-49276000D01*
X41148000Y-51308000D02*
X40894000Y-51054000D01*
D12*
X75565000Y-88265000D02*
X75565000Y-12065000D01*
X78105000Y-88265000D02*
X78105000Y-12065000D01*
X73025000Y-88265000D02*
X73025000Y-12065000D01*
M02*
